<?xml version="1.0"?>
<!-- Generated by SVGo and Plotinum VG -->
<svg width="740pt" height="370pt" viewBox="0 0 740 370"
	xmlns="http://www.w3.org/2000/svg"
	xmlns:xlink="http://www.w3.org/1999/xlink">
<g transform="scale(1, -1) translate(0, -370)">
<path d="M0,0L740,0L740,370L0,370Z" style="fill:#FFFFFF" />
<text x="311.01" y="-358.45" transform="scale(1, -1)"
	style="font-family:Times;font-weight:normal;font-style:normal;font-size:12px">BenchmarkTdigest_Add</text>
<text x="383.36" y="-3.8613" transform="scale(1, -1)"
	style="font-family:Times;font-weight:normal;font-style:normal;font-size:12px">source</text>
<text x="91.666" y="-15.602" transform="scale(1, -1)"
	style="font-family:Times;font-weight:normal;font-style:normal;font-size:10px">linear</text>
<text x="242.15" y="-15.602" transform="scale(1, -1)"
	style="font-family:Times;font-weight:normal;font-style:normal;font-size:10px">rand</text>
<text x="377.64" y="-15.602" transform="scale(1, -1)"
	style="font-family:Times;font-weight:normal;font-style:normal;font-size:10px">alternating</text>
<text x="532.85" y="-15.602" transform="scale(1, -1)"
	style="font-family:Times;font-weight:normal;font-style:normal;font-size:10px">normal</text>
<text x="678.06" y="-15.602" transform="scale(1, -1)"
	style="font-family:Times;font-weight:normal;font-style:normal;font-size:10px">tailspike</text>
<g transform="rotate(90)">
<text x="179.41" y="11.555" transform="scale(1, -1)"
	style="font-family:Times;font-weight:normal;font-style:normal;font-size:12px">ns/op</text>
</g>
<text x="30.416" y="-25.509" transform="scale(1, -1)"
	style="font-family:Times;font-weight:normal;font-style:normal;font-size:10px">0</text>
<text x="15.416" y="-124.49" transform="scale(1, -1)"
	style="font-family:Times;font-weight:normal;font-style:normal;font-size:10px">3000</text>
<text x="15.416" y="-223.47" transform="scale(1, -1)"
	style="font-family:Times;font-weight:normal;font-style:normal;font-size:10px">6000</text>
<text x="15.416" y="-322.45" transform="scale(1, -1)"
	style="font-family:Times;font-weight:normal;font-style:normal;font-size:10px">9000</text>
<path d="M37.916,30.23L45.916,30.23" style="fill:none;stroke:#000000;stroke-width:0.5" />
<path d="M37.916,129.21L45.916,129.21" style="fill:none;stroke:#000000;stroke-width:0.5" />
<path d="M37.916,228.19L45.916,228.19" style="fill:none;stroke:#000000;stroke-width:0.5" />
<path d="M37.916,327.17L45.916,327.17" style="fill:none;stroke:#000000;stroke-width:0.5" />
<path d="M41.916,63.223L45.916,63.223" style="fill:none;stroke:#000000;stroke-width:0.5" />
<path d="M41.916,96.216L45.916,96.216" style="fill:none;stroke:#000000;stroke-width:0.5" />
<path d="M41.916,162.2L45.916,162.2" style="fill:none;stroke:#000000;stroke-width:0.5" />
<path d="M41.916,195.2L45.916,195.2" style="fill:none;stroke:#000000;stroke-width:0.5" />
<path d="M41.916,261.18L45.916,261.18" style="fill:none;stroke:#000000;stroke-width:0.5" />
<path d="M41.916,294.17L45.916,294.17" style="fill:none;stroke:#000000;stroke-width:0.5" />
<path d="M45.916,30.23L45.916,354.58" style="fill:none;stroke:#000000;stroke-width:0.5" />
<path d="M58.048,30.23L58.048,198.33L88.048,198.33L88.048,30.23Z" style="fill:#F15A60" />
<path d="M206.04,30.23L206.04,73.649L236.04,73.649L236.04,30.23Z" style="fill:#F15A60" />
<path d="M354.02,30.23L354.02,354.58L384.02,354.58L384.02,30.23Z" style="fill:#F15A60" />
<path d="M502.01,30.23L502.01,75.134L532.01,75.134L532.01,30.23Z" style="fill:#F15A60" />
<path d="M650,30.23L650,73.748L680,73.748L680,30.23Z" style="fill:#F15A60" />
<path d="M88.048,30.23L88.048,67.809L118.05,67.809L118.05,30.23Z" style="fill:#7AC36A" />
<path d="M236.04,30.23L236.04,45.275L266.04,45.275L266.04,30.23Z" style="fill:#7AC36A" />
<path d="M384.02,30.23L384.02,62.531L414.02,62.531L414.02,30.23Z" style="fill:#7AC36A" />
<path d="M532.01,30.23L532.01,44.945L562.01,44.945L562.01,30.23Z" style="fill:#7AC36A" />
<path d="M680,30.23L680,44.879L710,44.879L710,30.23Z" style="fill:#7AC36A" />
<path d="M118.05,30.23L118.05,33.269L148.05,33.269L148.05,30.23Z" style="fill:#5A9BD4" />
<path d="M266.04,30.23L266.04,35.509L296.04,35.509L296.04,30.23Z" style="fill:#5A9BD4" />
<path d="M414.02,30.23L414.02,31.425L444.02,31.425L444.02,30.23Z" style="fill:#5A9BD4" />
<path d="M562.01,30.23L562.01,35.575L592.01,35.575L592.01,30.23Z" style="fill:#5A9BD4" />
<path d="M710,30.23L710,35.641L740,35.641L740,30.23Z" style="fill:#5A9BD4" />
<path d="M720,342.81L720,354.58L740,354.58L740,342.81Z" style="fill:#F15A60" />
<text x="697.01" y="-343.03" transform="scale(1, -1)"
	style="font-family:Times;font-weight:normal;font-style:normal;font-size:12px">caio</text>
<path d="M720,331.03L720,342.81L740,342.81L740,331.03Z" style="fill:#7AC36A" />
<text x="667.68" y="-331.25" transform="scale(1, -1)"
	style="font-family:Times;font-weight:normal;font-style:normal;font-size:12px">segmentio</text>
<path d="M720,319.25L720,331.03L740,331.03L740,319.25Z" style="fill:#5A9BD4" />
<text x="668.35" y="-319.47" transform="scale(1, -1)"
	style="font-family:Times;font-weight:normal;font-style:normal;font-size:12px">influxdata</text>
</g>
</svg>
