<?xml version="1.0"?>
<!-- Generated by SVGo and Plotinum VG -->
<svg width="740pt" height="370pt" viewBox="0 0 740 370"
	xmlns="http://www.w3.org/2000/svg"
	xmlns:xlink="http://www.w3.org/1999/xlink">
<g transform="scale(1, -1) translate(0, -370)">
<path d="M0,0L740,0L740,370L0,370Z" style="fill:#FFFFFF" />
<text x="311.01" y="-358.45" transform="scale(1, -1)"
	style="font-family:Times;font-weight:normal;font-style:normal;font-size:12px">BenchmarkTdigest_Add</text>
<text x="385.86" y="-3.8613" transform="scale(1, -1)"
	style="font-family:Times;font-weight:normal;font-style:normal;font-size:12px">source</text>
<text x="96.666" y="-15.602" transform="scale(1, -1)"
	style="font-family:Times;font-weight:normal;font-style:normal;font-size:10px">linear</text>
<text x="245.9" y="-15.602" transform="scale(1, -1)"
	style="font-family:Times;font-weight:normal;font-style:normal;font-size:10px">rand</text>
<text x="380.14" y="-15.602" transform="scale(1, -1)"
	style="font-family:Times;font-weight:normal;font-style:normal;font-size:10px">alternating</text>
<text x="524.94" y="-15.602" transform="scale(1, -1)"
	style="font-family:Times;font-weight:normal;font-style:normal;font-size:10px">exponential</text>
<text x="678.06" y="-15.602" transform="scale(1, -1)"
	style="font-family:Times;font-weight:normal;font-style:normal;font-size:10px">tailspike</text>
<g transform="rotate(90)">
<text x="179.41" y="11.555" transform="scale(1, -1)"
	style="font-family:Times;font-weight:normal;font-style:normal;font-size:12px">ns/op</text>
</g>
<text x="35.416" y="-25.509" transform="scale(1, -1)"
	style="font-family:Times;font-weight:normal;font-style:normal;font-size:10px">0</text>
<text x="20.416" y="-183.85" transform="scale(1, -1)"
	style="font-family:Times;font-weight:normal;font-style:normal;font-size:10px">5000</text>
<text x="15.416" y="-342.2" transform="scale(1, -1)"
	style="font-family:Times;font-weight:normal;font-style:normal;font-size:10px">10000</text>
<path d="M42.916,30.23L50.916,30.23" style="fill:none;stroke:#000000;stroke-width:0.5" />
<path d="M42.916,188.58L50.916,188.58" style="fill:none;stroke:#000000;stroke-width:0.5" />
<path d="M42.916,346.92L50.916,346.92" style="fill:none;stroke:#000000;stroke-width:0.5" />
<path d="M46.916,61.899L50.916,61.899" style="fill:none;stroke:#000000;stroke-width:0.5" />
<path d="M46.916,93.568L50.916,93.568" style="fill:none;stroke:#000000;stroke-width:0.5" />
<path d="M46.916,125.24L50.916,125.24" style="fill:none;stroke:#000000;stroke-width:0.5" />
<path d="M46.916,156.91L50.916,156.91" style="fill:none;stroke:#000000;stroke-width:0.5" />
<path d="M46.916,220.24L50.916,220.24" style="fill:none;stroke:#000000;stroke-width:0.5" />
<path d="M46.916,251.91L50.916,251.91" style="fill:none;stroke:#000000;stroke-width:0.5" />
<path d="M46.916,283.58L50.916,283.58" style="fill:none;stroke:#000000;stroke-width:0.5" />
<path d="M46.916,315.25L50.916,315.25" style="fill:none;stroke:#000000;stroke-width:0.5" />
<path d="M50.916,30.23L50.916,354.58" style="fill:none;stroke:#000000;stroke-width:0.5" />
<path d="M63.048,30.23L63.048,184.74L93.048,184.74L93.048,30.23Z" style="fill:#F15A60" />
<path d="M209.79,30.23L209.79,72.762L239.79,72.762L239.79,30.23Z" style="fill:#F15A60" />
<path d="M356.52,30.23L356.52,354.58L386.52,354.58L386.52,30.23Z" style="fill:#F15A60" />
<path d="M503.26,30.23L503.26,71.178L533.26,71.178L533.26,30.23Z" style="fill:#F15A60" />
<path d="M650,30.23L650,72.952L680,72.952L680,30.23Z" style="fill:#F15A60" />
<path d="M93.048,30.23L93.048,65.985L123.05,65.985L123.05,30.23Z" style="fill:#7AC36A" />
<path d="M239.79,30.23L239.79,44.386L269.79,44.386L269.79,30.23Z" style="fill:#7AC36A" />
<path d="M386.52,30.23L386.52,60.348L416.52,60.348L416.52,30.23Z" style="fill:#7AC36A" />
<path d="M533.26,30.23L533.26,44.291L563.26,44.291L563.26,30.23Z" style="fill:#7AC36A" />
<path d="M680,30.23L680,44.323L710,44.323L710,30.23Z" style="fill:#7AC36A" />
<path d="M123.05,30.23L123.05,33.397L153.05,33.397L153.05,30.23Z" style="fill:#5A9BD4" />
<path d="M269.79,30.23L269.79,35.012L299.79,35.012L299.79,30.23Z" style="fill:#5A9BD4" />
<path d="M416.52,30.23L416.52,31.326L446.52,31.326L446.52,30.23Z" style="fill:#5A9BD4" />
<path d="M563.26,30.23L563.26,35.076L593.26,35.076L593.26,30.23Z" style="fill:#5A9BD4" />
<path d="M710,30.23L710,35.044L740,35.044L740,30.23Z" style="fill:#5A9BD4" />
<path d="M720,342.81L720,354.58L740,354.58L740,342.81Z" style="fill:#F15A60" />
<text x="697.01" y="-343.03" transform="scale(1, -1)"
	style="font-family:Times;font-weight:normal;font-style:normal;font-size:12px">caio</text>
<path d="M720,331.03L720,342.81L740,342.81L740,331.03Z" style="fill:#7AC36A" />
<text x="667.68" y="-331.25" transform="scale(1, -1)"
	style="font-family:Times;font-weight:normal;font-style:normal;font-size:12px">segmentio</text>
<path d="M720,319.25L720,331.03L740,331.03L740,319.25Z" style="fill:#5A9BD4" />
<text x="668.35" y="-319.47" transform="scale(1, -1)"
	style="font-family:Times;font-weight:normal;font-style:normal;font-size:12px">influxdata</text>
</g>
</svg>
