<?xml version="1.0"?>
<!-- Generated by SVGo and Plotinum VG -->
<svg width="740pt" height="370pt" viewBox="0 0 740 370"
	xmlns="http://www.w3.org/2000/svg"
	xmlns:xlink="http://www.w3.org/1999/xlink">
<g transform="scale(1, -1) translate(0, -370)">
<path d="M0,0L740,0L740,370L0,370Z" style="fill:#FFFFFF" />
<text x="311.01" y="-358.45" transform="scale(1, -1)"
	style="font-family:Times;font-weight:normal;font-style:normal;font-size:12px">BenchmarkTdigest_Add</text>
<text x="375.66" y="-3.8613" transform="scale(1, -1)"
	style="font-family:Times;font-weight:normal;font-style:normal;font-size:12px">digest</text>
<text x="106.67" y="-15.602" transform="scale(1, -1)"
	style="font-family:Times;font-weight:normal;font-style:normal;font-size:10px">caio</text>
<text x="369.45" y="-15.602" transform="scale(1, -1)"
	style="font-family:Times;font-weight:normal;font-style:normal;font-size:10px">segmentio</text>
<text x="644.73" y="-15.602" transform="scale(1, -1)"
	style="font-family:Times;font-weight:normal;font-style:normal;font-size:10px">influxdata</text>
<g transform="rotate(90)">
<text x="168.29" y="11.555" transform="scale(1, -1)"
	style="font-family:Times;font-weight:normal;font-style:normal;font-size:12px">allocs/op</text>
</g>
<text x="15.416" y="-25.509" transform="scale(1, -1)"
	style="font-family:Times;font-weight:normal;font-style:normal;font-size:10px">0</text>
<text x="15.416" y="-185.23" transform="scale(1, -1)"
	style="font-family:Times;font-weight:normal;font-style:normal;font-size:10px">4</text>
<text x="15.416" y="-344.96" transform="scale(1, -1)"
	style="font-family:Times;font-weight:normal;font-style:normal;font-size:10px">8</text>
<path d="M22.916,30.23L30.916,30.23" style="fill:none;stroke:#000000;stroke-width:0.5" />
<path d="M22.916,189.95L30.916,189.95" style="fill:none;stroke:#000000;stroke-width:0.5" />
<path d="M22.916,349.68L30.916,349.68" style="fill:none;stroke:#000000;stroke-width:0.5" />
<path d="M26.916,70.161L30.916,70.161" style="fill:none;stroke:#000000;stroke-width:0.5" />
<path d="M26.916,110.09L30.916,110.09" style="fill:none;stroke:#000000;stroke-width:0.5" />
<path d="M26.916,150.02L30.916,150.02" style="fill:none;stroke:#000000;stroke-width:0.5" />
<path d="M26.916,229.88L30.916,229.88" style="fill:none;stroke:#000000;stroke-width:0.5" />
<path d="M26.916,269.82L30.916,269.82" style="fill:none;stroke:#000000;stroke-width:0.5" />
<path d="M26.916,309.75L30.916,309.75" style="fill:none;stroke:#000000;stroke-width:0.5" />
<path d="M30.916,30.23L30.916,349.68" style="fill:none;stroke:#000000;stroke-width:0.5" />
<path d="M39.994,30.23L39.994,30.23L69.994,30.23L69.994,30.23Z" style="fill:#F15A60" />
<path d="M315,30.23L315,70.161L345,70.161L345,30.23Z" style="fill:#F15A60" />
<path d="M590,30.23L590,30.23L620,30.23L620,30.23Z" style="fill:#F15A60" />
<path d="M69.994,30.23L69.994,30.23L99.994,30.23L99.994,30.23Z" style="fill:#7AC36A" />
<path d="M345,30.23L345,70.161L375,70.161L375,30.23Z" style="fill:#7AC36A" />
<path d="M620,30.23L620,30.23L650,30.23L650,30.23Z" style="fill:#7AC36A" />
<path d="M99.994,30.23L99.994,30.23L129.99,30.23L129.99,30.23Z" style="fill:#5A9BD4" />
<path d="M375,30.23L375,349.68L405,349.68L405,30.23Z" style="fill:#5A9BD4" />
<path d="M650,30.23L650,30.23L680,30.23L680,30.23Z" style="fill:#5A9BD4" />
<path d="M129.99,30.23L129.99,30.23L159.99,30.23L159.99,30.23Z" style="fill:#FAA75B" />
<path d="M405,30.23L405,70.161L435,70.161L435,30.23Z" style="fill:#FAA75B" />
<path d="M680,30.23L680,30.23L710,30.23L710,30.23Z" style="fill:#FAA75B" />
<path d="M159.99,30.23L159.99,30.23L189.99,30.23L189.99,30.23Z" style="fill:#9E67AB" />
<path d="M435,30.23L435,70.161L465,70.161L465,30.23Z" style="fill:#9E67AB" />
<path d="M710,30.23L710,30.23L740,30.23L740,30.23Z" style="fill:#9E67AB" />
<path d="M720,342.81L720,354.58L740,354.58L740,342.81Z" style="fill:#F15A60" />
<text x="689.68" y="-343.03" transform="scale(1, -1)"
	style="font-family:Times;font-weight:normal;font-style:normal;font-size:12px">linear</text>
<path d="M720,331.03L720,342.81L740,342.81L740,331.03Z" style="fill:#7AC36A" />
<text x="695.68" y="-331.25" transform="scale(1, -1)"
	style="font-family:Times;font-weight:normal;font-style:normal;font-size:12px">rand</text>
<path d="M720,319.25L720,331.03L740,331.03L740,319.25Z" style="fill:#5A9BD4" />
<text x="665.69" y="-319.47" transform="scale(1, -1)"
	style="font-family:Times;font-weight:normal;font-style:normal;font-size:12px">alternating</text>
<path d="M720,307.47L720,319.25L740,319.25L740,307.47Z" style="fill:#FAA75B" />
<text x="661.02" y="-307.7" transform="scale(1, -1)"
	style="font-family:Times;font-weight:normal;font-style:normal;font-size:12px">exponential</text>
<path d="M720,295.7L720,307.47L740,307.47L740,295.7Z" style="fill:#9E67AB" />
<text x="676.34" y="-295.92" transform="scale(1, -1)"
	style="font-family:Times;font-weight:normal;font-style:normal;font-size:12px">tailspike</text>
</g>
</svg>
