<?xml version="1.0"?>
<!-- Generated by SVGo and Plotinum VG -->
<svg width="740pt" height="370pt" viewBox="0 0 740 370"
	xmlns="http://www.w3.org/2000/svg"
	xmlns:xlink="http://www.w3.org/1999/xlink">
<g transform="scale(1, -1) translate(0, -370)">
<path d="M0,0L740,0L740,370L0,370Z" style="fill:#FFFFFF" />
<text x="275.63" y="-358.45" transform="scale(1, -1)"
	style="font-family:Times;font-weight:normal;font-style:normal;font-size:12px">BenchmarkTdigest_Add/size=1000000</text>
<text x="385.9" y="-3.8613" transform="scale(1, -1)"
	style="font-family:Times;font-weight:normal;font-style:normal;font-size:12px">source</text>
<text x="96.744" y="-15.602" transform="scale(1, -1)"
	style="font-family:Times;font-weight:normal;font-style:normal;font-size:10px">linear</text>
<text x="245.96" y="-15.602" transform="scale(1, -1)"
	style="font-family:Times;font-weight:normal;font-style:normal;font-size:10px">rand</text>
<text x="380.18" y="-15.602" transform="scale(1, -1)"
	style="font-family:Times;font-weight:normal;font-style:normal;font-size:10px">alternating</text>
<text x="524.96" y="-15.602" transform="scale(1, -1)"
	style="font-family:Times;font-weight:normal;font-style:normal;font-size:10px">exponential</text>
<text x="678.06" y="-15.602" transform="scale(1, -1)"
	style="font-family:Times;font-weight:normal;font-style:normal;font-size:10px">tailspike</text>
<g transform="rotate(90)">
<text x="179.41" y="11.555" transform="scale(1, -1)"
	style="font-family:Times;font-weight:normal;font-style:normal;font-size:12px">ns/op</text>
</g>
<text x="35.494" y="-25.509" transform="scale(1, -1)"
	style="font-family:Times;font-weight:normal;font-style:normal;font-size:10px">0</text>
<text x="15.416" y="-161.66" transform="scale(1, -1)"
	style="font-family:Times;font-weight:normal;font-style:normal;font-size:10px">5e+09</text>
<text x="15.416" y="-297.82" transform="scale(1, -1)"
	style="font-family:Times;font-weight:normal;font-style:normal;font-size:10px">1e+10</text>
<path d="M42.994,30.23L50.994,30.23" style="fill:none;stroke:#000000;stroke-width:0.5" />
<path d="M42.994,166.38L50.994,166.38" style="fill:none;stroke:#000000;stroke-width:0.5" />
<path d="M42.994,302.54L50.994,302.54" style="fill:none;stroke:#000000;stroke-width:0.5" />
<path d="M46.994,57.461L50.994,57.461" style="fill:none;stroke:#000000;stroke-width:0.5" />
<path d="M46.994,84.692L50.994,84.692" style="fill:none;stroke:#000000;stroke-width:0.5" />
<path d="M46.994,111.92L50.994,111.92" style="fill:none;stroke:#000000;stroke-width:0.5" />
<path d="M46.994,139.15L50.994,139.15" style="fill:none;stroke:#000000;stroke-width:0.5" />
<path d="M46.994,193.61L50.994,193.61" style="fill:none;stroke:#000000;stroke-width:0.5" />
<path d="M46.994,220.85L50.994,220.85" style="fill:none;stroke:#000000;stroke-width:0.5" />
<path d="M46.994,248.08L50.994,248.08" style="fill:none;stroke:#000000;stroke-width:0.5" />
<path d="M46.994,275.31L50.994,275.31" style="fill:none;stroke:#000000;stroke-width:0.5" />
<path d="M46.994,329.77L50.994,329.77" style="fill:none;stroke:#000000;stroke-width:0.5" />
<path d="M50.994,30.23L50.994,354.58" style="fill:none;stroke:#000000;stroke-width:0.5" />
<path d="M63.126,30.23L63.126,163.39L93.126,163.39L93.126,30.23Z" style="fill:#F15A60" />
<path d="M209.84,30.23L209.84,65.929L239.84,65.929L239.84,30.23Z" style="fill:#F15A60" />
<path d="M356.56,30.23L356.56,354.58L386.56,354.58L386.56,30.23Z" style="fill:#F15A60" />
<path d="M503.28,30.23L503.28,65.71L533.28,65.71L533.28,30.23Z" style="fill:#F15A60" />
<path d="M650,30.23L650,65.786L680,65.786L680,30.23Z" style="fill:#F15A60" />
<path d="M93.126,30.23L93.126,47.051L123.13,47.051L123.13,30.23Z" style="fill:#7AC36A" />
<path d="M239.84,30.23L239.84,36.249L269.84,36.249L269.84,30.23Z" style="fill:#7AC36A" />
<path d="M386.56,30.23L386.56,51.502L416.56,51.502L416.56,30.23Z" style="fill:#7AC36A" />
<path d="M533.28,30.23L533.28,36.48L563.28,36.48L563.28,30.23Z" style="fill:#7AC36A" />
<path d="M680,30.23L680,36.416L710,36.416L710,30.23Z" style="fill:#7AC36A" />
<path d="M123.13,30.23L123.13,32.688L153.13,32.688L153.13,30.23Z" style="fill:#5A9BD4" />
<path d="M269.84,30.23L269.84,34.287L299.84,34.287L299.84,30.23Z" style="fill:#5A9BD4" />
<path d="M416.56,30.23L416.56,31.145L446.56,31.145L446.56,30.23Z" style="fill:#5A9BD4" />
<path d="M563.28,30.23L563.28,34.297L593.28,34.297L593.28,30.23Z" style="fill:#5A9BD4" />
<path d="M710,30.23L710,34.304L740,34.304L740,30.23Z" style="fill:#5A9BD4" />
<path d="M720,342.81L720,354.58L740,354.58L740,342.81Z" style="fill:#F15A60" />
<text x="697.01" y="-343.03" transform="scale(1, -1)"
	style="font-family:Times;font-weight:normal;font-style:normal;font-size:12px">caio</text>
<path d="M720,331.03L720,342.81L740,342.81L740,331.03Z" style="fill:#7AC36A" />
<text x="667.68" y="-331.25" transform="scale(1, -1)"
	style="font-family:Times;font-weight:normal;font-style:normal;font-size:12px">segmentio</text>
<path d="M720,319.25L720,331.03L740,331.03L740,319.25Z" style="fill:#5A9BD4" />
<text x="668.35" y="-319.47" transform="scale(1, -1)"
	style="font-family:Times;font-weight:normal;font-style:normal;font-size:12px">influxdata</text>
</g>
</svg>
