<?xml version="1.0"?>
<!-- Generated by SVGo and Plotinum VG -->
<svg width="380pt" height="190pt" viewBox="0 0 380 190"
	xmlns="http://www.w3.org/2000/svg"
	xmlns:xlink="http://www.w3.org/1999/xlink">
<g transform="scale(1, -1) translate(0, -190)">
<path d="M0,0L380,0L380,190L0,190Z" style="fill:#FFFFFF" />
<text x="82.313" y="-178.45" transform="scale(1, -1)"
	style="font-family:Times;font-weight:normal;font-style:normal;font-size:12px">BenchmarkTdigest_Add/source=exponential</text>
<text x="193.03" y="-3.8613" transform="scale(1, -1)"
	style="font-family:Times;font-weight:normal;font-style:normal;font-size:12px">digest</text>
<text x="46.666" y="-15.602" transform="scale(1, -1)"
	style="font-family:Times;font-weight:normal;font-style:normal;font-size:10px">caio</text>
<text x="186.81" y="-15.602" transform="scale(1, -1)"
	style="font-family:Times;font-weight:normal;font-style:normal;font-size:10px">segmentio</text>
<text x="339.46" y="-15.602" transform="scale(1, -1)"
	style="font-family:Times;font-weight:normal;font-style:normal;font-size:10px">influxdata</text>
<g transform="rotate(90)">
<text x="88.285" y="11.555" transform="scale(1, -1)"
	style="font-family:Times;font-weight:normal;font-style:normal;font-size:12px">B/op</text>
</g>
<text x="15.416" y="-25.509" transform="scale(1, -1)"
	style="font-family:Times;font-weight:normal;font-style:normal;font-size:10px">0</text>
<text x="15.416" y="-95.232" transform="scale(1, -1)"
	style="font-family:Times;font-weight:normal;font-style:normal;font-size:10px">4</text>
<text x="15.416" y="-164.96" transform="scale(1, -1)"
	style="font-family:Times;font-weight:normal;font-style:normal;font-size:10px">8</text>
<path d="M22.916,30.23L30.916,30.23" style="fill:none;stroke:#000000;stroke-width:0.5" />
<path d="M22.916,99.954L30.916,99.954" style="fill:none;stroke:#000000;stroke-width:0.5" />
<path d="M22.916,169.68L30.916,169.68" style="fill:none;stroke:#000000;stroke-width:0.5" />
<path d="M26.916,47.661L30.916,47.661" style="fill:none;stroke:#000000;stroke-width:0.5" />
<path d="M26.916,65.092L30.916,65.092" style="fill:none;stroke:#000000;stroke-width:0.5" />
<path d="M26.916,82.523L30.916,82.523" style="fill:none;stroke:#000000;stroke-width:0.5" />
<path d="M26.916,117.38L30.916,117.38" style="fill:none;stroke:#000000;stroke-width:0.5" />
<path d="M26.916,134.82L30.916,134.82" style="fill:none;stroke:#000000;stroke-width:0.5" />
<path d="M26.916,152.25L30.916,152.25" style="fill:none;stroke:#000000;stroke-width:0.5" />
<path d="M30.916,30.23L30.916,169.68" style="fill:none;stroke:#000000;stroke-width:0.5" />
<path d="M39.994,30.23L39.994,30.23L69.994,30.23L69.994,30.23Z" style="fill:#F15A60" />
<path d="M192.36,30.23L192.36,169.68L222.36,169.68L222.36,30.23Z" style="fill:#F15A60" />
<path d="M344.73,30.23L344.73,47.661L374.73,47.661L374.73,30.23Z" style="fill:#F15A60" />
<path d="M360,174.58L360,174.58L380,174.58L380,174.58Z" style="fill:#F15A60" />
</g>
</svg>
