<?xml version="1.0"?>
<!-- Generated by SVGo and Plotinum VG -->
<svg width="740pt" height="370pt" viewBox="0 0 740 370"
	xmlns="http://www.w3.org/2000/svg"
	xmlns:xlink="http://www.w3.org/1999/xlink">
<g transform="scale(1, -1) translate(0, -370)">
<path d="M0,0L740,0L740,370L0,370Z" style="fill:#FFFFFF" />
<text x="231.76" y="-358.45" transform="scale(1, -1)"
	style="font-family:Times;font-weight:normal;font-style:normal;font-size:12px">BenchmarkCorrectness/size=1000000/quantile=0.990000</text>
<text x="379.61" y="-3.8613" transform="scale(1, -1)"
	style="font-family:Times;font-weight:normal;font-style:normal;font-size:12px">source</text>
<text x="84.166" y="-15.602" transform="scale(1, -1)"
	style="font-family:Times;font-weight:normal;font-style:normal;font-size:10px">linear</text>
<text x="236.53" y="-15.602" transform="scale(1, -1)"
	style="font-family:Times;font-weight:normal;font-style:normal;font-size:10px">rand</text>
<text x="373.89" y="-15.602" transform="scale(1, -1)"
	style="font-family:Times;font-weight:normal;font-style:normal;font-size:10px">alternating</text>
<text x="521.81" y="-15.602" transform="scale(1, -1)"
	style="font-family:Times;font-weight:normal;font-style:normal;font-size:10px">exponential</text>
<text x="678.06" y="-15.602" transform="scale(1, -1)"
	style="font-family:Times;font-weight:normal;font-style:normal;font-size:10px">tailspike</text>
<g transform="rotate(90)">
<text x="163.2" y="11.555" transform="scale(1, -1)"
	style="font-family:Times;font-weight:normal;font-style:normal;font-size:12px">%difference</text>
</g>
<text x="15.416" y="-25.509" transform="scale(1, -1)"
	style="font-family:Times;font-weight:normal;font-style:normal;font-size:10px">0.0</text>
<text x="15.416" y="-157.9" transform="scale(1, -1)"
	style="font-family:Times;font-weight:normal;font-style:normal;font-size:10px">0.3</text>
<text x="15.416" y="-290.29" transform="scale(1, -1)"
	style="font-family:Times;font-weight:normal;font-style:normal;font-size:10px">0.6</text>
<path d="M30.416,30.23L38.416,30.23" style="fill:none;stroke:#000000;stroke-width:0.5" />
<path d="M30.416,162.62L38.416,162.62" style="fill:none;stroke:#000000;stroke-width:0.5" />
<path d="M30.416,295.01L38.416,295.01" style="fill:none;stroke:#000000;stroke-width:0.5" />
<path d="M34.416,74.36L38.416,74.36" style="fill:none;stroke:#000000;stroke-width:0.5" />
<path d="M34.416,118.49L38.416,118.49" style="fill:none;stroke:#000000;stroke-width:0.5" />
<path d="M34.416,206.75L38.416,206.75" style="fill:none;stroke:#000000;stroke-width:0.5" />
<path d="M34.416,250.88L38.416,250.88" style="fill:none;stroke:#000000;stroke-width:0.5" />
<path d="M34.416,339.14L38.416,339.14" style="fill:none;stroke:#000000;stroke-width:0.5" />
<path d="M38.416,30.23L38.416,354.58" style="fill:none;stroke:#000000;stroke-width:0.5" />
<path d="M50.548,30.23L50.548,30.275L80.548,30.275L80.548,30.23Z" style="fill:#F15A60" />
<path d="M200.41,30.23L200.41,30.282L230.41,30.282L230.41,30.23Z" style="fill:#F15A60" />
<path d="M350.27,30.23L350.27,30.23L380.27,30.23L380.27,30.23Z" style="fill:#F15A60" />
<path d="M500.14,30.23L500.14,31.643L530.14,31.643L530.14,30.23Z" style="fill:#F15A60" />
<path d="M650,30.23L650,30.888L680,30.888L680,30.23Z" style="fill:#F15A60" />
<path d="M80.548,30.23L80.548,30.253L110.55,30.253L110.55,30.23Z" style="fill:#7AC36A" />
<path d="M230.41,30.23L230.41,70.962L260.41,70.962L260.41,30.23Z" style="fill:#7AC36A" />
<path d="M380.27,30.23L380.27,30.23L410.27,30.23L410.27,30.23Z" style="fill:#7AC36A" />
<path d="M530.14,30.23L530.14,354.58L560.14,354.58L560.14,30.23Z" style="fill:#7AC36A" />
<path d="M680,30.23L680,93.336L710,93.336L710,30.23Z" style="fill:#7AC36A" />
<path d="M110.55,30.23L110.55,30.253L140.55,30.253L140.55,30.23Z" style="fill:#5A9BD4" />
<path d="M260.41,30.23L260.41,30.239L290.41,30.239L290.41,30.23Z" style="fill:#5A9BD4" />
<path d="M410.27,30.23L410.27,30.23L440.27,30.23L440.27,30.23Z" style="fill:#5A9BD4" />
<path d="M560.14,30.23L560.14,42.631L590.14,42.631L590.14,30.23Z" style="fill:#5A9BD4" />
<path d="M710,30.23L710,32.931L740,32.931L740,30.23Z" style="fill:#5A9BD4" />
<path d="M720,342.81L720,354.58L740,354.58L740,342.81Z" style="fill:#F15A60" />
<text x="697.01" y="-343.03" transform="scale(1, -1)"
	style="font-family:Times;font-weight:normal;font-style:normal;font-size:12px">caio</text>
<path d="M720,331.03L720,342.81L740,342.81L740,331.03Z" style="fill:#7AC36A" />
<text x="667.68" y="-331.25" transform="scale(1, -1)"
	style="font-family:Times;font-weight:normal;font-style:normal;font-size:12px">segmentio</text>
<path d="M720,319.25L720,331.03L740,331.03L740,319.25Z" style="fill:#5A9BD4" />
<text x="668.35" y="-319.47" transform="scale(1, -1)"
	style="font-family:Times;font-weight:normal;font-style:normal;font-size:12px">influxdata</text>
</g>
</svg>
