<?xml version="1.0"?>
<!-- Generated by SVGo and Plotinum VG -->
<svg width="740pt" height="370pt" viewBox="0 0 740 370"
	xmlns="http://www.w3.org/2000/svg"
	xmlns:xlink="http://www.w3.org/1999/xlink">
<g transform="scale(1, -1) translate(0, -370)">
<path d="M0,0L740,0L740,370L0,370Z" style="fill:#FFFFFF" />
<text x="237.76" y="-358.45" transform="scale(1, -1)"
	style="font-family:Times;font-weight:normal;font-style:normal;font-size:12px">BenchmarkCorrectness/size=1000000/quant=0.900000</text>
<text x="380.86" y="-3.8613" transform="scale(1, -1)"
	style="font-family:Times;font-weight:normal;font-style:normal;font-size:12px">source</text>
<text x="86.666" y="-15.602" transform="scale(1, -1)"
	style="font-family:Times;font-weight:normal;font-style:normal;font-size:10px">linear</text>
<text x="238.4" y="-15.602" transform="scale(1, -1)"
	style="font-family:Times;font-weight:normal;font-style:normal;font-size:10px">rand</text>
<text x="375.14" y="-15.602" transform="scale(1, -1)"
	style="font-family:Times;font-weight:normal;font-style:normal;font-size:10px">alternating</text>
<text x="522.44" y="-15.602" transform="scale(1, -1)"
	style="font-family:Times;font-weight:normal;font-style:normal;font-size:10px">exponential</text>
<text x="678.06" y="-15.602" transform="scale(1, -1)"
	style="font-family:Times;font-weight:normal;font-style:normal;font-size:10px">tailspike</text>
<g transform="rotate(90)">
<text x="163.2" y="11.555" transform="scale(1, -1)"
	style="font-family:Times;font-weight:normal;font-style:normal;font-size:12px">%difference</text>
</g>
<text x="25.416" y="-25.509" transform="scale(1, -1)"
	style="font-family:Times;font-weight:normal;font-style:normal;font-size:10px">0</text>
<text x="20.416" y="-123.8" transform="scale(1, -1)"
	style="font-family:Times;font-weight:normal;font-style:normal;font-size:10px">40</text>
<text x="20.416" y="-222.09" transform="scale(1, -1)"
	style="font-family:Times;font-weight:normal;font-style:normal;font-size:10px">80</text>
<text x="15.416" y="-320.38" transform="scale(1, -1)"
	style="font-family:Times;font-weight:normal;font-style:normal;font-size:10px">120</text>
<path d="M32.916,30.23L40.916,30.23" style="fill:none;stroke:#000000;stroke-width:0.5" />
<path d="M32.916,128.52L40.916,128.52" style="fill:none;stroke:#000000;stroke-width:0.5" />
<path d="M32.916,226.81L40.916,226.81" style="fill:none;stroke:#000000;stroke-width:0.5" />
<path d="M32.916,325.1L40.916,325.1" style="fill:none;stroke:#000000;stroke-width:0.5" />
<path d="M36.916,54.803L40.916,54.803" style="fill:none;stroke:#000000;stroke-width:0.5" />
<path d="M36.916,79.375L40.916,79.375" style="fill:none;stroke:#000000;stroke-width:0.5" />
<path d="M36.916,103.95L40.916,103.95" style="fill:none;stroke:#000000;stroke-width:0.5" />
<path d="M36.916,153.09L40.916,153.09" style="fill:none;stroke:#000000;stroke-width:0.5" />
<path d="M36.916,177.66L40.916,177.66" style="fill:none;stroke:#000000;stroke-width:0.5" />
<path d="M36.916,202.24L40.916,202.24" style="fill:none;stroke:#000000;stroke-width:0.5" />
<path d="M36.916,251.38L40.916,251.38" style="fill:none;stroke:#000000;stroke-width:0.5" />
<path d="M36.916,275.95L40.916,275.95" style="fill:none;stroke:#000000;stroke-width:0.5" />
<path d="M36.916,300.53L40.916,300.53" style="fill:none;stroke:#000000;stroke-width:0.5" />
<path d="M36.916,349.67L40.916,349.67" style="fill:none;stroke:#000000;stroke-width:0.5" />
<path d="M40.916,30.23L40.916,354.58" style="fill:none;stroke:#000000;stroke-width:0.5" />
<path d="M53.048,30.23L53.048,30.231L83.048,30.231L83.048,30.23Z" style="fill:#F15A60" />
<path d="M202.29,30.23L202.29,30.231L232.29,30.231L232.29,30.23Z" style="fill:#F15A60" />
<path d="M351.52,30.23L351.52,30.23L381.52,30.23L381.52,30.23Z" style="fill:#F15A60" />
<path d="M500.76,30.23L500.76,30.232L530.76,30.232L530.76,30.23Z" style="fill:#F15A60" />
<path d="M650,30.23L650,30.234L680,30.234L680,30.23Z" style="fill:#F15A60" />
<path d="M83.048,30.23L83.048,30.231L113.05,30.231L113.05,30.23Z" style="fill:#7AC36A" />
<path d="M232.29,30.23L232.29,31.029L262.29,31.029L262.29,30.23Z" style="fill:#7AC36A" />
<path d="M381.52,30.23L381.52,30.23L411.52,30.23L411.52,30.23Z" style="fill:#7AC36A" />
<path d="M530.76,30.23L530.76,35.71L560.76,35.71L560.76,30.23Z" style="fill:#7AC36A" />
<path d="M680,30.23L680,354.58L710,354.58L710,30.23Z" style="fill:#7AC36A" />
<path d="M113.05,30.23L113.05,30.231L143.05,30.231L143.05,30.23Z" style="fill:#5A9BD4" />
<path d="M262.29,30.23L262.29,30.231L292.29,30.231L292.29,30.23Z" style="fill:#5A9BD4" />
<path d="M411.52,30.23L411.52,30.23L441.52,30.23L441.52,30.23Z" style="fill:#5A9BD4" />
<path d="M560.76,30.23L560.76,30.254L590.76,30.254L590.76,30.23Z" style="fill:#5A9BD4" />
<path d="M710,30.23L710,100.75L740,100.75L740,30.23Z" style="fill:#5A9BD4" />
<path d="M720,342.81L720,354.58L740,354.58L740,342.81Z" style="fill:#F15A60" />
<text x="697.01" y="-343.03" transform="scale(1, -1)"
	style="font-family:Times;font-weight:normal;font-style:normal;font-size:12px">caio</text>
<path d="M720,331.03L720,342.81L740,342.81L740,331.03Z" style="fill:#7AC36A" />
<text x="667.68" y="-331.25" transform="scale(1, -1)"
	style="font-family:Times;font-weight:normal;font-style:normal;font-size:12px">segmentio</text>
<path d="M720,319.25L720,331.03L740,331.03L740,319.25Z" style="fill:#5A9BD4" />
<text x="668.35" y="-319.47" transform="scale(1, -1)"
	style="font-family:Times;font-weight:normal;font-style:normal;font-size:12px">influxdata</text>
</g>
</svg>
