<?xml version="1.0"?>
<!-- Generated by SVGo and Plotinum VG -->
<svg width="1190pt" height="595pt" viewBox="0 0 1190 595"
	xmlns="http://www.w3.org/2000/svg"
	xmlns:xlink="http://www.w3.org/1999/xlink">
<g transform="scale(1, -1) translate(0, -595)">
<path d="M0,0L1190,0L1190,595L0,595Z" style="fill:#FFFFFF" />
<text x="459.6" y="-583.45" transform="scale(1, -1)"
	style="font-family:Times;font-weight:normal;font-style:normal;font-size:12px">BenchmarkCorrectness/size=1000000/digest=segmentio</text>
<text x="620.86" y="-3.8613" transform="scale(1, -1)"
	style="font-family:Times;font-weight:normal;font-style:normal;font-size:12px">source</text>
<text x="146.67" y="-15.602" transform="scale(1, -1)"
	style="font-family:Times;font-weight:normal;font-style:normal;font-size:10px">linear</text>
<text x="388.4" y="-15.602" transform="scale(1, -1)"
	style="font-family:Times;font-weight:normal;font-style:normal;font-size:10px">rand</text>
<text x="615.14" y="-15.602" transform="scale(1, -1)"
	style="font-family:Times;font-weight:normal;font-style:normal;font-size:10px">alternating</text>
<text x="861.6" y="-15.602" transform="scale(1, -1)"
	style="font-family:Times;font-weight:normal;font-style:normal;font-size:10px">normal</text>
<text x="1098.1" y="-15.602" transform="scale(1, -1)"
	style="font-family:Times;font-weight:normal;font-style:normal;font-size:10px">tailspike</text>
<g transform="rotate(90)">
<text x="275.7" y="11.555" transform="scale(1, -1)"
	style="font-family:Times;font-weight:normal;font-style:normal;font-size:12px">%difference</text>
</g>
<text x="25.416" y="-25.509" transform="scale(1, -1)"
	style="font-family:Times;font-weight:normal;font-style:normal;font-size:10px">0</text>
<text x="20.416" y="-265.66" transform="scale(1, -1)"
	style="font-family:Times;font-weight:normal;font-style:normal;font-size:10px">80</text>
<text x="15.416" y="-505.82" transform="scale(1, -1)"
	style="font-family:Times;font-weight:normal;font-style:normal;font-size:10px">160</text>
<path d="M32.916,30.23L40.916,30.23" style="fill:none;stroke:#000000;stroke-width:0.5" />
<path d="M32.916,270.39L40.916,270.39" style="fill:none;stroke:#000000;stroke-width:0.5" />
<path d="M32.916,510.54L40.916,510.54" style="fill:none;stroke:#000000;stroke-width:0.5" />
<path d="M36.916,150.31L40.916,150.31" style="fill:none;stroke:#000000;stroke-width:0.5" />
<path d="M36.916,390.46L40.916,390.46" style="fill:none;stroke:#000000;stroke-width:0.5" />
<path d="M40.916,30.23L40.916,579.58" style="fill:none;stroke:#000000;stroke-width:0.5" />
<path d="M53.048,30.23L53.048,230.46L83.048,230.46L83.048,30.23Z" style="fill:#F15A60" />
<path d="M292.29,30.23L292.29,41.308L322.29,41.308L322.29,30.23Z" style="fill:#F15A60" />
<path d="M531.52,30.23L531.52,30.23L561.52,30.23L561.52,30.23Z" style="fill:#F15A60" />
<path d="M770.76,30.23L770.76,37.255L800.76,37.255L800.76,30.23Z" style="fill:#F15A60" />
<path d="M1010,30.23L1010,48.032L1040,48.032L1040,30.23Z" style="fill:#F15A60" />
<path d="M83.048,30.23L83.048,30.232L113.05,30.232L113.05,30.23Z" style="fill:#7AC36A" />
<path d="M322.29,30.23L322.29,30.315L352.29,30.315L352.29,30.23Z" style="fill:#7AC36A" />
<path d="M561.52,30.23L561.52,30.23L591.52,30.23L591.52,30.23Z" style="fill:#7AC36A" />
<path d="M800.76,30.23L800.76,35.094L830.76,35.094L830.76,30.23Z" style="fill:#7AC36A" />
<path d="M1040,30.23L1040,32.392L1070,32.392L1070,30.23Z" style="fill:#7AC36A" />
<path d="M113.05,30.23L113.05,30.231L143.05,30.231L143.05,30.23Z" style="fill:#5A9BD4" />
<path d="M352.29,30.23L352.29,31.84L382.29,31.84L382.29,30.23Z" style="fill:#5A9BD4" />
<path d="M591.52,30.23L591.52,30.23L621.52,30.23L621.52,30.23Z" style="fill:#5A9BD4" />
<path d="M830.76,30.23L830.76,579.58L860.76,579.58L860.76,30.23Z" style="fill:#5A9BD4" />
<path d="M1070,30.23L1070,31.858L1100,31.858L1100,30.23Z" style="fill:#5A9BD4" />
<path d="M143.05,30.23L143.05,30.231L173.05,30.231L173.05,30.23Z" style="fill:#FAA75B" />
<path d="M382.29,30.23L382.29,31.206L412.29,31.206L412.29,30.23Z" style="fill:#FAA75B" />
<path d="M621.52,30.23L621.52,30.23L651.52,30.23L651.52,30.23Z" style="fill:#FAA75B" />
<path d="M860.76,30.23L860.76,36.444L890.76,36.444L890.76,30.23Z" style="fill:#FAA75B" />
<path d="M1100,30.23L1100,426.49L1130,426.49L1130,30.23Z" style="fill:#FAA75B" />
<path d="M173.05,30.23L173.05,30.231L203.05,30.231L203.05,30.23Z" style="fill:#9E67AB" />
<path d="M412.29,30.23L412.29,30.508L442.29,30.508L442.29,30.23Z" style="fill:#9E67AB" />
<path d="M651.52,30.23L651.52,30.23L681.52,30.23L681.52,30.23Z" style="fill:#9E67AB" />
<path d="M890.76,30.23L890.76,32.122L920.76,32.122L920.76,30.23Z" style="fill:#9E67AB" />
<path d="M1130,30.23L1130,30.66L1160,30.66L1160,30.23Z" style="fill:#9E67AB" />
<path d="M203.05,30.23L203.05,30.231L233.05,30.231L233.05,30.23Z" style="fill:#CE7058" />
<path d="M442.29,30.23L442.29,30.235L472.29,30.235L472.29,30.23Z" style="fill:#CE7058" />
<path d="M681.52,30.23L681.52,30.23L711.52,30.23L711.52,30.23Z" style="fill:#CE7058" />
<path d="M920.76,30.23L920.76,34.853L950.76,34.853L950.76,30.23Z" style="fill:#CE7058" />
<path d="M1160,30.23L1160,30.271L1190,30.271L1190,30.23Z" style="fill:#CE7058" />
<path d="M1170,567.81L1170,579.58L1190,579.58L1190,567.81Z" style="fill:#F15A60" />
<text x="1122" y="-568.03" transform="scale(1, -1)"
	style="font-family:Times;font-weight:normal;font-style:normal;font-size:12px">0.000000</text>
<path d="M1170,556.03L1170,567.81L1190,567.81L1190,556.03Z" style="fill:#7AC36A" />
<text x="1122" y="-556.25" transform="scale(1, -1)"
	style="font-family:Times;font-weight:normal;font-style:normal;font-size:12px">0.100000</text>
<path d="M1170,544.25L1170,556.03L1190,556.03L1190,544.25Z" style="fill:#5A9BD4" />
<text x="1122" y="-544.47" transform="scale(1, -1)"
	style="font-family:Times;font-weight:normal;font-style:normal;font-size:12px">0.500000</text>
<path d="M1170,532.47L1170,544.25L1190,544.25L1190,532.47Z" style="fill:#FAA75B" />
<text x="1122" y="-532.7" transform="scale(1, -1)"
	style="font-family:Times;font-weight:normal;font-style:normal;font-size:12px">0.900000</text>
<path d="M1170,520.7L1170,532.47L1190,532.47L1190,520.7Z" style="fill:#9E67AB" />
<text x="1122" y="-520.92" transform="scale(1, -1)"
	style="font-family:Times;font-weight:normal;font-style:normal;font-size:12px">0.990000</text>
<path d="M1170,508.92L1170,520.7L1190,520.7L1190,508.92Z" style="fill:#CE7058" />
<text x="1122" y="-509.14" transform="scale(1, -1)"
	style="font-family:Times;font-weight:normal;font-style:normal;font-size:12px">0.999000</text>
</g>
</svg>
