<?xml version="1.0"?>
<!-- Generated by SVGo and Plotinum VG -->
<svg width="2990pt" height="1495pt" viewBox="0 0 2990 1495"
	xmlns="http://www.w3.org/2000/svg"
	xmlns:xlink="http://www.w3.org/1999/xlink">
<g transform="scale(1, -1) translate(0, -1495)">
<path d="M0,0L2990,0L2990,1495L0,1495Z" style="fill:#FFFFFF" />
<text x="1403.6" y="-1483.4" transform="scale(1, -1)"
	style="font-family:Times;font-weight:normal;font-style:normal;font-size:12px">BenchmarkCorrectness/size=1000000</text>
<text x="1520.7" y="-3.8613" transform="scale(1, -1)"
	style="font-family:Times;font-weight:normal;font-style:normal;font-size:12px">digest</text>
<text x="506.67" y="-15.602" transform="scale(1, -1)"
	style="font-family:Times;font-weight:normal;font-style:normal;font-size:10px">caio</text>
<text x="1514.4" y="-15.602" transform="scale(1, -1)"
	style="font-family:Times;font-weight:normal;font-style:normal;font-size:10px">segmentio</text>
<text x="2534.7" y="-15.602" transform="scale(1, -1)"
	style="font-family:Times;font-weight:normal;font-style:normal;font-size:10px">influxdata</text>
<g transform="rotate(90)">
<text x="725.7" y="11.555" transform="scale(1, -1)"
	style="font-family:Times;font-weight:normal;font-style:normal;font-size:12px">%difference</text>
</g>
<text x="25.416" y="-25.509" transform="scale(1, -1)"
	style="font-family:Times;font-weight:normal;font-style:normal;font-size:10px">0</text>
<text x="20.416" y="-659.11" transform="scale(1, -1)"
	style="font-family:Times;font-weight:normal;font-style:normal;font-size:10px">80</text>
<text x="15.416" y="-1292.7" transform="scale(1, -1)"
	style="font-family:Times;font-weight:normal;font-style:normal;font-size:10px">160</text>
<path d="M32.916,30.23L40.916,30.23" style="fill:none;stroke:#000000;stroke-width:0.5" />
<path d="M32.916,663.83L40.916,663.83" style="fill:none;stroke:#000000;stroke-width:0.5" />
<path d="M32.916,1297.4L40.916,1297.4" style="fill:none;stroke:#000000;stroke-width:0.5" />
<path d="M36.916,347.03L40.916,347.03" style="fill:none;stroke:#000000;stroke-width:0.5" />
<path d="M36.916,980.63L40.916,980.63" style="fill:none;stroke:#000000;stroke-width:0.5" />
<path d="M40.916,30.23L40.916,1479.6" style="fill:none;stroke:#000000;stroke-width:0.5" />
<path d="M49.994,30.23L49.994,30.23L79.994,30.23L79.994,30.23Z" style="fill:#F15A60" />
<path d="M1070,30.23L1070,558.49L1100,558.49L1100,30.23Z" style="fill:#F15A60" />
<path d="M2090,30.23L2090,30.23L2120,30.23L2120,30.23Z" style="fill:#F15A60" />
<path d="M79.994,30.23L79.994,30.231L109.99,30.231L109.99,30.23Z" style="fill:#7AC36A" />
<path d="M1100,30.23L1100,30.234L1130,30.234L1130,30.23Z" style="fill:#7AC36A" />
<path d="M2120,30.23L2120,30.234L2150,30.234L2150,30.23Z" style="fill:#7AC36A" />
<path d="M109.99,30.23L109.99,30.231L139.99,30.231L139.99,30.23Z" style="fill:#5A9BD4" />
<path d="M1130,30.23L1130,30.231L1160,30.231L1160,30.23Z" style="fill:#5A9BD4" />
<path d="M2150,30.23L2150,30.231L2180,30.231L2180,30.23Z" style="fill:#5A9BD4" />
<path d="M139.99,30.23L139.99,30.231L169.99,30.231L169.99,30.23Z" style="fill:#FAA75B" />
<path d="M1160,30.23L1160,30.231L1190,30.231L1190,30.23Z" style="fill:#FAA75B" />
<path d="M2180,30.23L2180,30.231L2210,30.231L2210,30.23Z" style="fill:#FAA75B" />
<path d="M169.99,30.23L169.99,30.231L199.99,30.231L199.99,30.23Z" style="fill:#9E67AB" />
<path d="M1190,30.23L1190,30.231L1220,30.231L1220,30.23Z" style="fill:#9E67AB" />
<path d="M2210,30.23L2210,30.231L2240,30.231L2240,30.23Z" style="fill:#9E67AB" />
<path d="M199.99,30.23L199.99,30.231L229.99,30.231L229.99,30.23Z" style="fill:#CE7058" />
<path d="M1220,30.23L1220,30.231L1250,30.231L1250,30.23Z" style="fill:#CE7058" />
<path d="M2240,30.23L2240,30.231L2270,30.231L2270,30.23Z" style="fill:#CE7058" />
<path d="M229.99,30.23L229.99,30.23L259.99,30.23L259.99,30.23Z" style="fill:#D77FB4" />
<path d="M1250,30.23L1250,59.455L1280,59.455L1280,30.23Z" style="fill:#D77FB4" />
<path d="M2270,30.23L2270,30.23L2300,30.23L2300,30.23Z" style="fill:#D77FB4" />
<path d="M259.99,30.23L259.99,30.256L289.99,30.256L289.99,30.23Z" style="fill:#F15A60" />
<path d="M1280,30.23L1280,30.453L1310,30.453L1310,30.23Z" style="fill:#F15A60" />
<path d="M2300,30.23L2300,30.294L2330,30.294L2330,30.23Z" style="fill:#F15A60" />
<path d="M289.99,30.23L289.99,30.238L319.99,30.238L319.99,30.23Z" style="fill:#7AC36A" />
<path d="M1310,30.23L1310,34.476L1340,34.476L1340,30.23Z" style="fill:#7AC36A" />
<path d="M2330,30.23L2330,30.261L2360,30.261L2360,30.23Z" style="fill:#7AC36A" />
<path d="M319.99,30.23L319.99,30.232L349.99,30.232L349.99,30.23Z" style="fill:#5A9BD4" />
<path d="M1340,30.23L1340,32.804L1370,32.804L1370,30.23Z" style="fill:#5A9BD4" />
<path d="M2360,30.23L2360,30.231L2390,30.231L2390,30.23Z" style="fill:#5A9BD4" />
<path d="M349.99,30.23L349.99,30.231L379.99,30.231L379.99,30.23Z" style="fill:#FAA75B" />
<path d="M1370,30.23L1370,30.961L1400,30.961L1400,30.23Z" style="fill:#FAA75B" />
<path d="M2390,30.23L2390,30.231L2420,30.231L2420,30.23Z" style="fill:#FAA75B" />
<path d="M379.99,30.23L379.99,30.232L409.99,30.232L409.99,30.23Z" style="fill:#9E67AB" />
<path d="M1400,30.23L1400,30.243L1430,30.243L1430,30.23Z" style="fill:#9E67AB" />
<path d="M2420,30.23L2420,30.233L2450,30.233L2450,30.23Z" style="fill:#9E67AB" />
<path d="M409.99,30.23L409.99,30.23L439.99,30.23L439.99,30.23Z" style="fill:#CE7058" />
<path d="M1430,30.23L1430,30.23L1460,30.23L1460,30.23Z" style="fill:#CE7058" />
<path d="M2450,30.23L2450,30.23L2480,30.23L2480,30.23Z" style="fill:#CE7058" />
<path d="M439.99,30.23L439.99,30.23L469.99,30.23L469.99,30.23Z" style="fill:#D77FB4" />
<path d="M1460,30.23L1460,30.23L1490,30.23L1490,30.23Z" style="fill:#D77FB4" />
<path d="M2480,30.23L2480,30.23L2510,30.23L2510,30.23Z" style="fill:#D77FB4" />
<path d="M469.99,30.23L469.99,30.23L499.99,30.23L499.99,30.23Z" style="fill:#F15A60" />
<path d="M1490,30.23L1490,30.23L1520,30.23L1520,30.23Z" style="fill:#F15A60" />
<path d="M2510,30.23L2510,30.23L2540,30.23L2540,30.23Z" style="fill:#F15A60" />
<path d="M499.99,30.23L499.99,30.23L529.99,30.23L529.99,30.23Z" style="fill:#7AC36A" />
<path d="M1520,30.23L1520,30.23L1550,30.23L1550,30.23Z" style="fill:#7AC36A" />
<path d="M2540,30.23L2540,30.23L2570,30.23L2570,30.23Z" style="fill:#7AC36A" />
<path d="M529.99,30.23L529.99,30.23L559.99,30.23L559.99,30.23Z" style="fill:#5A9BD4" />
<path d="M1550,30.23L1550,30.23L1580,30.23L1580,30.23Z" style="fill:#5A9BD4" />
<path d="M2570,30.23L2570,30.23L2600,30.23L2600,30.23Z" style="fill:#5A9BD4" />
<path d="M559.99,30.23L559.99,30.23L589.99,30.23L589.99,30.23Z" style="fill:#FAA75B" />
<path d="M1580,30.23L1580,30.23L1610,30.23L1610,30.23Z" style="fill:#FAA75B" />
<path d="M2600,30.23L2600,30.23L2630,30.23L2630,30.23Z" style="fill:#FAA75B" />
<path d="M589.99,30.23L589.99,30.23L619.99,30.23L619.99,30.23Z" style="fill:#9E67AB" />
<path d="M1610,30.23L1610,48.763L1640,48.763L1640,30.23Z" style="fill:#9E67AB" />
<path d="M2630,30.23L2630,30.23L2660,30.23L2660,30.23Z" style="fill:#9E67AB" />
<path d="M619.99,30.23L619.99,30.233L649.99,30.233L649.99,30.23Z" style="fill:#CE7058" />
<path d="M1640,30.23L1640,43.061L1670,43.061L1670,30.23Z" style="fill:#CE7058" />
<path d="M2660,30.23L2660,30.324L2690,30.324L2690,30.23Z" style="fill:#CE7058" />
<path d="M649.99,30.23L649.99,33.676L679.99,33.676L679.99,30.23Z" style="fill:#D77FB4" />
<path d="M1670,30.23L1670,1479.6L1700,1479.6L1700,30.23Z" style="fill:#D77FB4" />
<path d="M2690,30.23L2690,43.14L2720,43.14L2720,30.23Z" style="fill:#D77FB4" />
<path d="M679.99,30.23L679.99,30.24L709.99,30.24L709.99,30.23Z" style="fill:#F15A60" />
<path d="M1700,30.23L1700,46.625L1730,46.625L1730,30.23Z" style="fill:#F15A60" />
<path d="M2720,30.23L2720,30.239L2750,30.239L2750,30.23Z" style="fill:#F15A60" />
<path d="M709.99,30.23L709.99,30.251L739.99,30.251L739.99,30.23Z" style="fill:#7AC36A" />
<path d="M1730,30.23L1730,35.22L1760,35.22L1760,30.23Z" style="fill:#7AC36A" />
<path d="M2750,30.23L2750,30.283L2780,30.283L2780,30.23Z" style="fill:#7AC36A" />
<path d="M739.99,30.23L739.99,30.264L769.99,30.264L769.99,30.23Z" style="fill:#5A9BD4" />
<path d="M1760,30.23L1760,42.427L1790,42.427L1790,30.23Z" style="fill:#5A9BD4" />
<path d="M2780,30.23L2780,30.293L2810,30.293L2810,30.23Z" style="fill:#5A9BD4" />
<path d="M769.99,30.23L769.99,30.23L799.99,30.23L799.99,30.23Z" style="fill:#FAA75B" />
<path d="M1790,30.23L1790,77.196L1820,77.196L1820,30.23Z" style="fill:#FAA75B" />
<path d="M2810,30.23L2810,30.23L2840,30.23L2840,30.23Z" style="fill:#FAA75B" />
<path d="M799.99,30.23L799.99,30.249L829.99,30.249L829.99,30.23Z" style="fill:#9E67AB" />
<path d="M1820,30.23L1820,35.933L1850,35.933L1850,30.23Z" style="fill:#9E67AB" />
<path d="M2840,30.23L2840,30.289L2870,30.289L2870,30.23Z" style="fill:#9E67AB" />
<path d="M829.99,30.23L829.99,30.253L859.99,30.253L859.99,30.23Z" style="fill:#CE7058" />
<path d="M1850,30.23L1850,34.523L1880,34.523L1880,30.23Z" style="fill:#CE7058" />
<path d="M2870,30.23L2870,30.259L2900,30.259L2900,30.23Z" style="fill:#CE7058" />
<path d="M859.99,30.23L859.99,30.243L889.99,30.243L889.99,30.23Z" style="fill:#D77FB4" />
<path d="M1880,30.23L1880,1075.7L1910,1075.7L1910,30.23Z" style="fill:#D77FB4" />
<path d="M2900,30.23L2900,257.53L2930,257.53L2930,30.23Z" style="fill:#D77FB4" />
<path d="M889.99,30.23L889.99,30.242L919.99,30.242L919.99,30.23Z" style="fill:#F15A60" />
<path d="M1910,30.23L1910,31.363L1940,31.363L1940,30.23Z" style="fill:#F15A60" />
<path d="M2930,30.23L2930,30.279L2960,30.279L2960,30.23Z" style="fill:#F15A60" />
<path d="M919.99,30.23L919.99,30.231L949.99,30.231L949.99,30.23Z" style="fill:#7AC36A" />
<path d="M1940,30.23L1940,30.338L1970,30.338L1970,30.23Z" style="fill:#7AC36A" />
<path d="M2960,30.23L2960,30.241L2990,30.241L2990,30.23Z" style="fill:#7AC36A" />
<path d="M2970,1467.8L2970,1479.6L2990,1479.6L2990,1467.8Z" style="fill:#F15A60" />
<text x="2812.7" y="-1468" transform="scale(1, -1)"
	style="font-family:Times;font-weight:normal;font-style:normal;font-size:12px">[source=linear,quant=0.000000]</text>
<path d="M2970,1456L2970,1467.8L2990,1467.8L2990,1456Z" style="fill:#7AC36A" />
<text x="2812.7" y="-1456.3" transform="scale(1, -1)"
	style="font-family:Times;font-weight:normal;font-style:normal;font-size:12px">[source=linear,quant=0.100000]</text>
<path d="M2970,1444.3L2970,1456L2990,1456L2990,1444.3Z" style="fill:#5A9BD4" />
<text x="2812.7" y="-1444.5" transform="scale(1, -1)"
	style="font-family:Times;font-weight:normal;font-style:normal;font-size:12px">[source=linear,quant=0.500000]</text>
<path d="M2970,1432.5L2970,1444.3L2990,1444.3L2990,1432.5Z" style="fill:#FAA75B" />
<text x="2812.7" y="-1432.7" transform="scale(1, -1)"
	style="font-family:Times;font-weight:normal;font-style:normal;font-size:12px">[source=linear,quant=0.900000]</text>
<path d="M2970,1420.7L2970,1432.5L2990,1432.5L2990,1420.7Z" style="fill:#9E67AB" />
<text x="2812.7" y="-1420.9" transform="scale(1, -1)"
	style="font-family:Times;font-weight:normal;font-style:normal;font-size:12px">[source=linear,quant=0.990000]</text>
<path d="M2970,1408.9L2970,1420.7L2990,1420.7L2990,1408.9Z" style="fill:#CE7058" />
<text x="2812.7" y="-1409.1" transform="scale(1, -1)"
	style="font-family:Times;font-weight:normal;font-style:normal;font-size:12px">[source=linear,quant=0.999000]</text>
<path d="M2970,1397.1L2970,1408.9L2990,1408.9L2990,1397.1Z" style="fill:#D77FB4" />
<text x="2818.2" y="-1397.4" transform="scale(1, -1)"
	style="font-family:Times;font-weight:normal;font-style:normal;font-size:12px">[source=rand,quant=0.000000]</text>
<path d="M2970,1385.4L2970,1397.1L2990,1397.1L2990,1385.4Z" style="fill:#F15A60" />
<text x="2818.2" y="-1385.6" transform="scale(1, -1)"
	style="font-family:Times;font-weight:normal;font-style:normal;font-size:12px">[source=rand,quant=0.100000]</text>
<path d="M2970,1373.6L2970,1385.4L2990,1385.4L2990,1373.6Z" style="fill:#7AC36A" />
<text x="2818.2" y="-1373.8" transform="scale(1, -1)"
	style="font-family:Times;font-weight:normal;font-style:normal;font-size:12px">[source=rand,quant=0.500000]</text>
<path d="M2970,1361.8L2970,1373.6L2990,1373.6L2990,1361.8Z" style="fill:#5A9BD4" />
<text x="2818.2" y="-1362" transform="scale(1, -1)"
	style="font-family:Times;font-weight:normal;font-style:normal;font-size:12px">[source=rand,quant=0.900000]</text>
<path d="M2970,1350L2970,1361.8L2990,1361.8L2990,1350Z" style="fill:#FAA75B" />
<text x="2818.2" y="-1350.3" transform="scale(1, -1)"
	style="font-family:Times;font-weight:normal;font-style:normal;font-size:12px">[source=rand,quant=0.990000]</text>
<path d="M2970,1338.3L2970,1350L2990,1350L2990,1338.3Z" style="fill:#9E67AB" />
<text x="2818.2" y="-1338.5" transform="scale(1, -1)"
	style="font-family:Times;font-weight:normal;font-style:normal;font-size:12px">[source=rand,quant=0.999000]</text>
<path d="M2970,1326.5L2970,1338.3L2990,1338.3L2990,1326.5Z" style="fill:#CE7058" />
<text x="2788.2" y="-1326.7" transform="scale(1, -1)"
	style="font-family:Times;font-weight:normal;font-style:normal;font-size:12px">[source=alternating,quant=0.000000]</text>
<path d="M2970,1314.7L2970,1326.5L2990,1326.5L2990,1314.7Z" style="fill:#D77FB4" />
<text x="2788.2" y="-1314.9" transform="scale(1, -1)"
	style="font-family:Times;font-weight:normal;font-style:normal;font-size:12px">[source=alternating,quant=0.100000]</text>
<path d="M2970,1302.9L2970,1314.7L2990,1314.7L2990,1302.9Z" style="fill:#F15A60" />
<text x="2788.2" y="-1303.1" transform="scale(1, -1)"
	style="font-family:Times;font-weight:normal;font-style:normal;font-size:12px">[source=alternating,quant=0.500000]</text>
<path d="M2970,1291.1L2970,1302.9L2990,1302.9L2990,1291.1Z" style="fill:#7AC36A" />
<text x="2788.2" y="-1291.4" transform="scale(1, -1)"
	style="font-family:Times;font-weight:normal;font-style:normal;font-size:12px">[source=alternating,quant=0.900000]</text>
<path d="M2970,1279.4L2970,1291.1L2990,1291.1L2990,1279.4Z" style="fill:#5A9BD4" />
<text x="2788.2" y="-1279.6" transform="scale(1, -1)"
	style="font-family:Times;font-weight:normal;font-style:normal;font-size:12px">[source=alternating,quant=0.990000]</text>
<path d="M2970,1267.6L2970,1279.4L2990,1279.4L2990,1267.6Z" style="fill:#FAA75B" />
<text x="2788.2" y="-1267.8" transform="scale(1, -1)"
	style="font-family:Times;font-weight:normal;font-style:normal;font-size:12px">[source=alternating,quant=0.999000]</text>
<path d="M2970,1255.8L2970,1267.6L2990,1267.6L2990,1255.8Z" style="fill:#9E67AB" />
<text x="2805.5" y="-1256" transform="scale(1, -1)"
	style="font-family:Times;font-weight:normal;font-style:normal;font-size:12px">[source=normal,quant=0.000000]</text>
<path d="M2970,1244L2970,1255.8L2990,1255.8L2990,1244Z" style="fill:#CE7058" />
<text x="2805.5" y="-1244.3" transform="scale(1, -1)"
	style="font-family:Times;font-weight:normal;font-style:normal;font-size:12px">[source=normal,quant=0.100000]</text>
<path d="M2970,1232.3L2970,1244L2990,1244L2990,1232.3Z" style="fill:#D77FB4" />
<text x="2805.5" y="-1232.5" transform="scale(1, -1)"
	style="font-family:Times;font-weight:normal;font-style:normal;font-size:12px">[source=normal,quant=0.500000]</text>
<path d="M2970,1220.5L2970,1232.3L2990,1232.3L2990,1220.5Z" style="fill:#F15A60" />
<text x="2805.5" y="-1220.7" transform="scale(1, -1)"
	style="font-family:Times;font-weight:normal;font-style:normal;font-size:12px">[source=normal,quant=0.900000]</text>
<path d="M2970,1208.7L2970,1220.5L2990,1220.5L2990,1208.7Z" style="fill:#7AC36A" />
<text x="2805.5" y="-1208.9" transform="scale(1, -1)"
	style="font-family:Times;font-weight:normal;font-style:normal;font-size:12px">[source=normal,quant=0.990000]</text>
<path d="M2970,1196.9L2970,1208.7L2990,1208.7L2990,1196.9Z" style="fill:#5A9BD4" />
<text x="2805.5" y="-1197.2" transform="scale(1, -1)"
	style="font-family:Times;font-weight:normal;font-style:normal;font-size:12px">[source=normal,quant=0.999000]</text>
<path d="M2970,1185.2L2970,1196.9L2990,1196.9L2990,1185.2Z" style="fill:#FAA75B" />
<text x="2798.8" y="-1185.4" transform="scale(1, -1)"
	style="font-family:Times;font-weight:normal;font-style:normal;font-size:12px">[source=tailspike,quant=0.000000]</text>
<path d="M2970,1173.4L2970,1185.2L2990,1185.2L2990,1173.4Z" style="fill:#9E67AB" />
<text x="2798.8" y="-1173.6" transform="scale(1, -1)"
	style="font-family:Times;font-weight:normal;font-style:normal;font-size:12px">[source=tailspike,quant=0.100000]</text>
<path d="M2970,1161.6L2970,1173.4L2990,1173.4L2990,1161.6Z" style="fill:#CE7058" />
<text x="2798.8" y="-1161.8" transform="scale(1, -1)"
	style="font-family:Times;font-weight:normal;font-style:normal;font-size:12px">[source=tailspike,quant=0.500000]</text>
<path d="M2970,1149.8L2970,1161.6L2990,1161.6L2990,1149.8Z" style="fill:#D77FB4" />
<text x="2798.8" y="-1150" transform="scale(1, -1)"
	style="font-family:Times;font-weight:normal;font-style:normal;font-size:12px">[source=tailspike,quant=0.900000]</text>
<path d="M2970,1138L2970,1149.8L2990,1149.8L2990,1138Z" style="fill:#F15A60" />
<text x="2798.8" y="-1138.3" transform="scale(1, -1)"
	style="font-family:Times;font-weight:normal;font-style:normal;font-size:12px">[source=tailspike,quant=0.990000]</text>
<path d="M2970,1126.3L2970,1138L2990,1138L2990,1126.3Z" style="fill:#7AC36A" />
<text x="2798.8" y="-1126.5" transform="scale(1, -1)"
	style="font-family:Times;font-weight:normal;font-style:normal;font-size:12px">[source=tailspike,quant=0.999000]</text>
</g>
</svg>
