<?xml version="1.0"?>
<!-- Generated by SVGo and Plotinum VG -->
<svg width="1190pt" height="595pt" viewBox="0 0 1190 595"
	xmlns="http://www.w3.org/2000/svg"
	xmlns:xlink="http://www.w3.org/1999/xlink">
<g transform="scale(1, -1) translate(0, -595)">
<path d="M0,0L1190,0L1190,595L0,595Z" style="fill:#FFFFFF" />
<text x="474.26" y="-583.45" transform="scale(1, -1)"
	style="font-family:Times;font-weight:normal;font-style:normal;font-size:12px">BenchmarkCorrectness/size=1000000/digest=caio</text>
<text x="619.61" y="-3.8613" transform="scale(1, -1)"
	style="font-family:Times;font-weight:normal;font-style:normal;font-size:12px">source</text>
<text x="144.17" y="-15.602" transform="scale(1, -1)"
	style="font-family:Times;font-weight:normal;font-style:normal;font-size:10px">linear</text>
<text x="386.53" y="-15.602" transform="scale(1, -1)"
	style="font-family:Times;font-weight:normal;font-style:normal;font-size:10px">rand</text>
<text x="613.89" y="-15.602" transform="scale(1, -1)"
	style="font-family:Times;font-weight:normal;font-style:normal;font-size:10px">alternating</text>
<text x="860.97" y="-15.602" transform="scale(1, -1)"
	style="font-family:Times;font-weight:normal;font-style:normal;font-size:10px">normal</text>
<text x="1098.1" y="-15.602" transform="scale(1, -1)"
	style="font-family:Times;font-weight:normal;font-style:normal;font-size:10px">tailspike</text>
<g transform="rotate(90)">
<text x="275.7" y="11.555" transform="scale(1, -1)"
	style="font-family:Times;font-weight:normal;font-style:normal;font-size:12px">%difference</text>
</g>
<text x="15.416" y="-25.509" transform="scale(1, -1)"
	style="font-family:Times;font-weight:normal;font-style:normal;font-size:10px">0.0</text>
<text x="15.416" y="-278.09" transform="scale(1, -1)"
	style="font-family:Times;font-weight:normal;font-style:normal;font-size:10px">0.2</text>
<text x="15.416" y="-530.66" transform="scale(1, -1)"
	style="font-family:Times;font-weight:normal;font-style:normal;font-size:10px">0.4</text>
<path d="M30.416,30.23L38.416,30.23" style="fill:none;stroke:#000000;stroke-width:0.5" />
<path d="M30.416,282.81L38.416,282.81" style="fill:none;stroke:#000000;stroke-width:0.5" />
<path d="M30.416,535.38L38.416,535.38" style="fill:none;stroke:#000000;stroke-width:0.5" />
<path d="M34.416,156.52L38.416,156.52" style="fill:none;stroke:#000000;stroke-width:0.5" />
<path d="M34.416,409.09L38.416,409.09" style="fill:none;stroke:#000000;stroke-width:0.5" />
<path d="M38.416,30.23L38.416,579.58" style="fill:none;stroke:#000000;stroke-width:0.5" />
<path d="M50.548,30.23L50.548,30.23L80.548,30.23L80.548,30.23Z" style="fill:#F15A60" />
<path d="M290.41,30.23L290.41,30.23L320.41,30.23L320.41,30.23Z" style="fill:#F15A60" />
<path d="M530.27,30.23L530.27,30.23L560.27,30.23L560.27,30.23Z" style="fill:#F15A60" />
<path d="M770.14,30.23L770.14,30.23L800.14,30.23L800.14,30.23Z" style="fill:#F15A60" />
<path d="M1010,30.23L1010,30.23L1040,30.23L1040,30.23Z" style="fill:#F15A60" />
<path d="M80.548,30.23L80.548,30.357L110.55,30.357L110.55,30.23Z" style="fill:#7AC36A" />
<path d="M320.41,30.23L320.41,34.246L350.41,34.246L350.41,30.23Z" style="fill:#7AC36A" />
<path d="M560.27,30.23L560.27,30.23L590.27,30.23L590.27,30.23Z" style="fill:#7AC36A" />
<path d="M800.14,30.23L800.14,30.606L830.14,30.606L830.14,30.23Z" style="fill:#7AC36A" />
<path d="M1040,30.23L1040,33.261L1070,33.261L1070,30.23Z" style="fill:#7AC36A" />
<path d="M110.55,30.23L110.55,30.355L140.55,30.355L140.55,30.23Z" style="fill:#5A9BD4" />
<path d="M350.41,30.23L350.41,31.401L380.41,31.401L380.41,30.23Z" style="fill:#5A9BD4" />
<path d="M590.27,30.23L590.27,30.23L620.27,30.23L620.27,30.23Z" style="fill:#5A9BD4" />
<path d="M830.14,30.23L830.14,579.58L860.14,579.58L860.14,30.23Z" style="fill:#5A9BD4" />
<path d="M1070,30.23L1070,33.88L1100,33.88L1100,30.23Z" style="fill:#5A9BD4" />
<path d="M140.55,30.23L140.55,30.357L170.55,30.357L170.55,30.23Z" style="fill:#FAA75B" />
<path d="M380.41,30.23L380.41,30.451L410.41,30.451L410.41,30.23Z" style="fill:#FAA75B" />
<path d="M620.27,30.23L620.27,30.23L650.27,30.23L650.27,30.23Z" style="fill:#FAA75B" />
<path d="M860.14,30.23L860.14,31.683L890.14,31.683L890.14,30.23Z" style="fill:#FAA75B" />
<path d="M1100,30.23L1100,32.302L1130,32.302L1130,30.23Z" style="fill:#FAA75B" />
<path d="M170.55,30.23L170.55,30.343L200.55,30.343L200.55,30.23Z" style="fill:#9E67AB" />
<path d="M410.41,30.23L410.41,30.378L440.41,30.378L440.41,30.23Z" style="fill:#9E67AB" />
<path d="M650.27,30.23L650.27,30.23L680.27,30.23L680.27,30.23Z" style="fill:#9E67AB" />
<path d="M890.14,30.23L890.14,33.514L920.14,33.514L920.14,30.23Z" style="fill:#9E67AB" />
<path d="M1130,30.23L1130,32.112L1160,32.112L1160,30.23Z" style="fill:#9E67AB" />
<path d="M200.55,30.23L200.55,30.357L230.55,30.357L230.55,30.23Z" style="fill:#CE7058" />
<path d="M440.41,30.23L440.41,30.465L470.41,30.465L470.41,30.23Z" style="fill:#CE7058" />
<path d="M680.27,30.23L680.27,30.23L710.27,30.23L710.27,30.23Z" style="fill:#CE7058" />
<path d="M920.14,30.23L920.14,35.623L950.14,35.623L950.14,30.23Z" style="fill:#CE7058" />
<path d="M1160,30.23L1160,30.35L1190,30.35L1190,30.23Z" style="fill:#CE7058" />
<path d="M1170,567.81L1170,579.58L1190,579.58L1190,567.81Z" style="fill:#F15A60" />
<text x="1122" y="-568.03" transform="scale(1, -1)"
	style="font-family:Times;font-weight:normal;font-style:normal;font-size:12px">0.000000</text>
<path d="M1170,556.03L1170,567.81L1190,567.81L1190,556.03Z" style="fill:#7AC36A" />
<text x="1122" y="-556.25" transform="scale(1, -1)"
	style="font-family:Times;font-weight:normal;font-style:normal;font-size:12px">0.100000</text>
<path d="M1170,544.25L1170,556.03L1190,556.03L1190,544.25Z" style="fill:#5A9BD4" />
<text x="1122" y="-544.47" transform="scale(1, -1)"
	style="font-family:Times;font-weight:normal;font-style:normal;font-size:12px">0.500000</text>
<path d="M1170,532.47L1170,544.25L1190,544.25L1190,532.47Z" style="fill:#FAA75B" />
<text x="1122" y="-532.7" transform="scale(1, -1)"
	style="font-family:Times;font-weight:normal;font-style:normal;font-size:12px">0.900000</text>
<path d="M1170,520.7L1170,532.47L1190,532.47L1190,520.7Z" style="fill:#9E67AB" />
<text x="1122" y="-520.92" transform="scale(1, -1)"
	style="font-family:Times;font-weight:normal;font-style:normal;font-size:12px">0.990000</text>
<path d="M1170,508.92L1170,520.7L1190,520.7L1190,508.92Z" style="fill:#CE7058" />
<text x="1122" y="-509.14" transform="scale(1, -1)"
	style="font-family:Times;font-weight:normal;font-style:normal;font-size:12px">0.999000</text>
</g>
</svg>
