<?xml version="1.0"?>
<!-- Generated by SVGo and Plotinum VG -->
<svg width="2540pt" height="1270pt" viewBox="0 0 2540 1270"
	xmlns="http://www.w3.org/2000/svg"
	xmlns:xlink="http://www.w3.org/1999/xlink">
<g transform="scale(1, -1) translate(0, -1270)">
<path d="M0,0L2540,0L2540,1270L0,1270Z" style="fill:#FFFFFF" />
<text x="1178.6" y="-1258.4" transform="scale(1, -1)"
	style="font-family:Times;font-weight:normal;font-style:normal;font-size:12px">BenchmarkCorrectness/size=1000000</text>
<text x="1280.7" y="-3.8613" transform="scale(1, -1)"
	style="font-family:Times;font-weight:normal;font-style:normal;font-size:12px">digest</text>
<text x="416.67" y="-15.602" transform="scale(1, -1)"
	style="font-family:Times;font-weight:normal;font-style:normal;font-size:10px">caio</text>
<text x="1274.4" y="-15.602" transform="scale(1, -1)"
	style="font-family:Times;font-weight:normal;font-style:normal;font-size:10px">segmentio</text>
<text x="2144.7" y="-15.602" transform="scale(1, -1)"
	style="font-family:Times;font-weight:normal;font-style:normal;font-size:10px">influxdata</text>
<g transform="rotate(90)">
<text x="613.2" y="11.555" transform="scale(1, -1)"
	style="font-family:Times;font-weight:normal;font-style:normal;font-size:12px">%difference</text>
</g>
<text x="25.416" y="-25.509" transform="scale(1, -1)"
	style="font-family:Times;font-weight:normal;font-style:normal;font-size:10px">0</text>
<text x="20.416" y="-396.53" transform="scale(1, -1)"
	style="font-family:Times;font-weight:normal;font-style:normal;font-size:10px">40</text>
<text x="20.416" y="-767.54" transform="scale(1, -1)"
	style="font-family:Times;font-weight:normal;font-style:normal;font-size:10px">80</text>
<text x="15.416" y="-1138.6" transform="scale(1, -1)"
	style="font-family:Times;font-weight:normal;font-style:normal;font-size:10px">120</text>
<path d="M32.916,30.23L40.916,30.23" style="fill:none;stroke:#000000;stroke-width:0.5" />
<path d="M32.916,401.25L40.916,401.25" style="fill:none;stroke:#000000;stroke-width:0.5" />
<path d="M32.916,772.26L40.916,772.26" style="fill:none;stroke:#000000;stroke-width:0.5" />
<path d="M32.916,1143.3L40.916,1143.3" style="fill:none;stroke:#000000;stroke-width:0.5" />
<path d="M36.916,122.98L40.916,122.98" style="fill:none;stroke:#000000;stroke-width:0.5" />
<path d="M36.916,215.74L40.916,215.74" style="fill:none;stroke:#000000;stroke-width:0.5" />
<path d="M36.916,308.49L40.916,308.49" style="fill:none;stroke:#000000;stroke-width:0.5" />
<path d="M36.916,494L40.916,494" style="fill:none;stroke:#000000;stroke-width:0.5" />
<path d="M36.916,586.75L40.916,586.75" style="fill:none;stroke:#000000;stroke-width:0.5" />
<path d="M36.916,679.51L40.916,679.51" style="fill:none;stroke:#000000;stroke-width:0.5" />
<path d="M36.916,865.02L40.916,865.02" style="fill:none;stroke:#000000;stroke-width:0.5" />
<path d="M36.916,957.77L40.916,957.77" style="fill:none;stroke:#000000;stroke-width:0.5" />
<path d="M36.916,1050.5L40.916,1050.5" style="fill:none;stroke:#000000;stroke-width:0.5" />
<path d="M36.916,1236L40.916,1236" style="fill:none;stroke:#000000;stroke-width:0.5" />
<path d="M40.916,30.23L40.916,1254.6" style="fill:none;stroke:#000000;stroke-width:0.5" />
<path d="M49.994,30.23L49.994,30.468L79.994,30.468L79.994,30.23Z" style="fill:#F15A60" />
<path d="M920,30.23L920,30.235L950,30.235L950,30.23Z" style="fill:#F15A60" />
<path d="M1790,30.23L1790,30.235L1820,30.235L1820,30.23Z" style="fill:#F15A60" />
<path d="M79.994,30.23L79.994,30.231L109.99,30.231L109.99,30.23Z" style="fill:#7AC36A" />
<path d="M950,30.23L950,30.231L980,30.231L980,30.23Z" style="fill:#7AC36A" />
<path d="M1820,30.23L1820,30.231L1850,30.231L1850,30.23Z" style="fill:#7AC36A" />
<path d="M109.99,30.23L109.99,30.231L139.99,30.231L139.99,30.23Z" style="fill:#5A9BD4" />
<path d="M980,30.23L980,30.231L1010,30.231L1010,30.23Z" style="fill:#5A9BD4" />
<path d="M1850,30.23L1850,30.231L1880,30.231L1880,30.23Z" style="fill:#5A9BD4" />
<path d="M139.99,30.23L139.99,30.231L169.99,30.231L169.99,30.23Z" style="fill:#FAA75B" />
<path d="M1010,30.23L1010,30.231L1040,30.231L1040,30.23Z" style="fill:#FAA75B" />
<path d="M1880,30.23L1880,30.231L1910,30.231L1910,30.23Z" style="fill:#FAA75B" />
<path d="M169.99,30.23L169.99,30.231L199.99,30.231L199.99,30.23Z" style="fill:#9E67AB" />
<path d="M1040,30.23L1040,30.231L1070,30.231L1070,30.23Z" style="fill:#9E67AB" />
<path d="M1910,30.23L1910,30.231L1940,30.231L1940,30.23Z" style="fill:#9E67AB" />
<path d="M199.99,30.23L199.99,30.26L229.99,30.26L229.99,30.23Z" style="fill:#CE7058" />
<path d="M1070,30.23L1070,30.491L1100,30.491L1100,30.23Z" style="fill:#CE7058" />
<path d="M1940,30.23L1940,30.305L1970,30.305L1970,30.23Z" style="fill:#CE7058" />
<path d="M229.99,30.23L229.99,30.239L259.99,30.239L259.99,30.23Z" style="fill:#D77FB4" />
<path d="M1100,30.23L1100,35.202L1130,35.202L1130,30.23Z" style="fill:#D77FB4" />
<path d="M1970,30.23L1970,30.266L2000,30.266L2000,30.23Z" style="fill:#D77FB4" />
<path d="M259.99,30.23L259.99,30.232L289.99,30.232L289.99,30.23Z" style="fill:#F15A60" />
<path d="M1130,30.23L1130,33.245L1160,33.245L1160,30.23Z" style="fill:#F15A60" />
<path d="M2000,30.23L2000,30.231L2030,30.231L2030,30.23Z" style="fill:#F15A60" />
<path d="M289.99,30.23L289.99,30.232L319.99,30.232L319.99,30.23Z" style="fill:#7AC36A" />
<path d="M1160,30.23L1160,31.087L1190,31.087L1190,30.23Z" style="fill:#7AC36A" />
<path d="M2030,30.23L2030,30.231L2060,30.231L2060,30.23Z" style="fill:#7AC36A" />
<path d="M319.99,30.23L319.99,30.232L349.99,30.232L349.99,30.23Z" style="fill:#5A9BD4" />
<path d="M1190,30.23L1190,30.245L1220,30.245L1220,30.23Z" style="fill:#5A9BD4" />
<path d="M2060,30.23L2060,30.233L2090,30.233L2090,30.23Z" style="fill:#5A9BD4" />
<path d="M349.99,30.23L349.99,30.23L379.99,30.23L379.99,30.23Z" style="fill:#FAA75B" />
<path d="M1220,30.23L1220,30.23L1250,30.23L1250,30.23Z" style="fill:#FAA75B" />
<path d="M2090,30.23L2090,30.23L2120,30.23L2120,30.23Z" style="fill:#FAA75B" />
<path d="M379.99,30.23L379.99,30.23L409.99,30.23L409.99,30.23Z" style="fill:#9E67AB" />
<path d="M1250,30.23L1250,30.23L1280,30.23L1280,30.23Z" style="fill:#9E67AB" />
<path d="M2120,30.23L2120,30.23L2150,30.23L2150,30.23Z" style="fill:#9E67AB" />
<path d="M409.99,30.23L409.99,30.23L439.99,30.23L439.99,30.23Z" style="fill:#CE7058" />
<path d="M1280,30.23L1280,30.23L1310,30.23L1310,30.23Z" style="fill:#CE7058" />
<path d="M2150,30.23L2150,30.23L2180,30.23L2180,30.23Z" style="fill:#CE7058" />
<path d="M439.99,30.23L439.99,30.23L469.99,30.23L469.99,30.23Z" style="fill:#D77FB4" />
<path d="M1310,30.23L1310,30.23L1340,30.23L1340,30.23Z" style="fill:#D77FB4" />
<path d="M2180,30.23L2180,30.23L2210,30.23L2210,30.23Z" style="fill:#D77FB4" />
<path d="M469.99,30.23L469.99,30.23L499.99,30.23L499.99,30.23Z" style="fill:#F15A60" />
<path d="M1340,30.23L1340,30.23L1370,30.23L1370,30.23Z" style="fill:#F15A60" />
<path d="M2210,30.23L2210,30.23L2240,30.23L2240,30.23Z" style="fill:#F15A60" />
<path d="M499.99,30.23L499.99,30.232L529.99,30.232L529.99,30.23Z" style="fill:#7AC36A" />
<path d="M1370,30.23L1370,40.526L1400,40.526L1400,30.23Z" style="fill:#7AC36A" />
<path d="M2240,30.23L2240,30.24L2270,30.24L2270,30.23Z" style="fill:#7AC36A" />
<path d="M529.99,30.23L529.99,30.247L559.99,30.247L559.99,30.23Z" style="fill:#5A9BD4" />
<path d="M1400,30.23L1400,31.334L1430,31.334L1430,30.23Z" style="fill:#5A9BD4" />
<path d="M2270,30.23L2270,30.251L2300,30.251L2300,30.23Z" style="fill:#5A9BD4" />
<path d="M559.99,30.23L559.99,30.238L589.99,30.238L589.99,30.23Z" style="fill:#FAA75B" />
<path d="M1430,30.23L1430,50.915L1460,50.915L1460,30.23Z" style="fill:#FAA75B" />
<path d="M2300,30.23L2300,30.319L2330,30.319L2330,30.23Z" style="fill:#FAA75B" />
<path d="M589.99,30.23L589.99,30.26L619.99,30.26L619.99,30.23Z" style="fill:#9E67AB" />
<path d="M1460,30.23L1460,37.048L1490,37.048L1490,30.23Z" style="fill:#9E67AB" />
<path d="M2330,30.23L2330,30.491L2360,30.491L2360,30.23Z" style="fill:#9E67AB" />
<path d="M619.99,30.23L619.99,30.272L649.99,30.272L649.99,30.23Z" style="fill:#CE7058" />
<path d="M1490,30.23L1490,39.432L1520,39.432L1520,30.23Z" style="fill:#CE7058" />
<path d="M2360,30.23L2360,31.325L2390,31.325L2390,30.23Z" style="fill:#CE7058" />
<path d="M649.99,30.23L649.99,30.253L679.99,30.253L679.99,30.23Z" style="fill:#D77FB4" />
<path d="M1520,30.23L1520,36.909L1550,36.909L1550,30.23Z" style="fill:#D77FB4" />
<path d="M2390,30.23L2390,30.299L2420,30.299L2420,30.23Z" style="fill:#D77FB4" />
<path d="M679.99,30.23L679.99,30.257L709.99,30.257L709.99,30.23Z" style="fill:#F15A60" />
<path d="M1550,30.23L1550,35.258L1580,35.258L1580,30.23Z" style="fill:#F15A60" />
<path d="M2420,30.23L2420,30.263L2450,30.263L2450,30.23Z" style="fill:#F15A60" />
<path d="M709.99,30.23L709.99,30.246L739.99,30.246L739.99,30.23Z" style="fill:#7AC36A" />
<path d="M1580,30.23L1580,1254.6L1610,1254.6L1610,30.23Z" style="fill:#7AC36A" />
<path d="M2450,30.23L2450,296.43L2480,296.43L2480,30.23Z" style="fill:#7AC36A" />
<path d="M739.99,30.23L739.99,30.244L769.99,30.244L769.99,30.23Z" style="fill:#5A9BD4" />
<path d="M1610,30.23L1610,31.557L1640,31.557L1640,30.23Z" style="fill:#5A9BD4" />
<path d="M2480,30.23L2480,30.287L2510,30.287L2510,30.23Z" style="fill:#5A9BD4" />
<path d="M769.99,30.23L769.99,30.231L799.99,30.231L799.99,30.23Z" style="fill:#FAA75B" />
<path d="M1640,30.23L1640,30.357L1670,30.357L1670,30.23Z" style="fill:#FAA75B" />
<path d="M2510,30.23L2510,30.243L2540,30.243L2540,30.23Z" style="fill:#FAA75B" />
<path d="M2520,1242.8L2520,1254.6L2540,1254.6L2540,1242.8Z" style="fill:#F15A60" />
<text x="2350.7" y="-1243" transform="scale(1, -1)"
	style="font-family:Times;font-weight:normal;font-style:normal;font-size:12px">[source=linear,quantile=0.100000]</text>
<path d="M2520,1231L2520,1242.8L2540,1242.8L2540,1231Z" style="fill:#7AC36A" />
<text x="2350.7" y="-1231.3" transform="scale(1, -1)"
	style="font-family:Times;font-weight:normal;font-style:normal;font-size:12px">[source=linear,quantile=0.500000]</text>
<path d="M2520,1219.3L2520,1231L2540,1231L2540,1219.3Z" style="fill:#5A9BD4" />
<text x="2350.7" y="-1219.5" transform="scale(1, -1)"
	style="font-family:Times;font-weight:normal;font-style:normal;font-size:12px">[source=linear,quantile=0.900000]</text>
<path d="M2520,1207.5L2520,1219.3L2540,1219.3L2540,1207.5Z" style="fill:#FAA75B" />
<text x="2350.7" y="-1207.7" transform="scale(1, -1)"
	style="font-family:Times;font-weight:normal;font-style:normal;font-size:12px">[source=linear,quantile=0.990000]</text>
<path d="M2520,1195.7L2520,1207.5L2540,1207.5L2540,1195.7Z" style="fill:#9E67AB" />
<text x="2350.7" y="-1195.9" transform="scale(1, -1)"
	style="font-family:Times;font-weight:normal;font-style:normal;font-size:12px">[source=linear,quantile=0.999000]</text>
<path d="M2520,1183.9L2520,1195.7L2540,1195.7L2540,1183.9Z" style="fill:#CE7058" />
<text x="2356.2" y="-1184.1" transform="scale(1, -1)"
	style="font-family:Times;font-weight:normal;font-style:normal;font-size:12px">[source=rand,quantile=0.100000]</text>
<path d="M2520,1172.1L2520,1183.9L2540,1183.9L2540,1172.1Z" style="fill:#D77FB4" />
<text x="2356.2" y="-1172.4" transform="scale(1, -1)"
	style="font-family:Times;font-weight:normal;font-style:normal;font-size:12px">[source=rand,quantile=0.500000]</text>
<path d="M2520,1160.4L2520,1172.1L2540,1172.1L2540,1160.4Z" style="fill:#F15A60" />
<text x="2356.2" y="-1160.6" transform="scale(1, -1)"
	style="font-family:Times;font-weight:normal;font-style:normal;font-size:12px">[source=rand,quantile=0.900000]</text>
<path d="M2520,1148.6L2520,1160.4L2540,1160.4L2540,1148.6Z" style="fill:#7AC36A" />
<text x="2356.2" y="-1148.8" transform="scale(1, -1)"
	style="font-family:Times;font-weight:normal;font-style:normal;font-size:12px">[source=rand,quantile=0.990000]</text>
<path d="M2520,1136.8L2520,1148.6L2540,1148.6L2540,1136.8Z" style="fill:#5A9BD4" />
<text x="2356.2" y="-1137" transform="scale(1, -1)"
	style="font-family:Times;font-weight:normal;font-style:normal;font-size:12px">[source=rand,quantile=0.999000]</text>
<path d="M2520,1125L2520,1136.8L2540,1136.8L2540,1125Z" style="fill:#FAA75B" />
<text x="2326.2" y="-1125.3" transform="scale(1, -1)"
	style="font-family:Times;font-weight:normal;font-style:normal;font-size:12px">[source=alternating,quantile=0.100000]</text>
<path d="M2520,1113.3L2520,1125L2540,1125L2540,1113.3Z" style="fill:#9E67AB" />
<text x="2326.2" y="-1113.5" transform="scale(1, -1)"
	style="font-family:Times;font-weight:normal;font-style:normal;font-size:12px">[source=alternating,quantile=0.500000]</text>
<path d="M2520,1101.5L2520,1113.3L2540,1113.3L2540,1101.5Z" style="fill:#CE7058" />
<text x="2326.2" y="-1101.7" transform="scale(1, -1)"
	style="font-family:Times;font-weight:normal;font-style:normal;font-size:12px">[source=alternating,quantile=0.900000]</text>
<path d="M2520,1089.7L2520,1101.5L2540,1101.5L2540,1089.7Z" style="fill:#D77FB4" />
<text x="2326.2" y="-1089.9" transform="scale(1, -1)"
	style="font-family:Times;font-weight:normal;font-style:normal;font-size:12px">[source=alternating,quantile=0.990000]</text>
<path d="M2520,1077.9L2520,1089.7L2540,1089.7L2540,1077.9Z" style="fill:#F15A60" />
<text x="2326.2" y="-1078.1" transform="scale(1, -1)"
	style="font-family:Times;font-weight:normal;font-style:normal;font-size:12px">[source=alternating,quantile=0.999000]</text>
<path d="M2520,1066.1L2520,1077.9L2540,1077.9L2540,1066.1Z" style="fill:#7AC36A" />
<text x="2321.5" y="-1066.4" transform="scale(1, -1)"
	style="font-family:Times;font-weight:normal;font-style:normal;font-size:12px">[source=exponential,quantile=0.100000]</text>
<path d="M2520,1054.4L2520,1066.1L2540,1066.1L2540,1054.4Z" style="fill:#5A9BD4" />
<text x="2321.5" y="-1054.6" transform="scale(1, -1)"
	style="font-family:Times;font-weight:normal;font-style:normal;font-size:12px">[source=exponential,quantile=0.500000]</text>
<path d="M2520,1042.6L2520,1054.4L2540,1054.4L2540,1042.6Z" style="fill:#FAA75B" />
<text x="2321.5" y="-1042.8" transform="scale(1, -1)"
	style="font-family:Times;font-weight:normal;font-style:normal;font-size:12px">[source=exponential,quantile=0.900000]</text>
<path d="M2520,1030.8L2520,1042.6L2540,1042.6L2540,1030.8Z" style="fill:#9E67AB" />
<text x="2321.5" y="-1031" transform="scale(1, -1)"
	style="font-family:Times;font-weight:normal;font-style:normal;font-size:12px">[source=exponential,quantile=0.990000]</text>
<path d="M2520,1019L2520,1030.8L2540,1030.8L2540,1019Z" style="fill:#CE7058" />
<text x="2321.5" y="-1019.3" transform="scale(1, -1)"
	style="font-family:Times;font-weight:normal;font-style:normal;font-size:12px">[source=exponential,quantile=0.999000]</text>
<path d="M2520,1007.3L2520,1019L2540,1019L2540,1007.3Z" style="fill:#D77FB4" />
<text x="2336.8" y="-1007.5" transform="scale(1, -1)"
	style="font-family:Times;font-weight:normal;font-style:normal;font-size:12px">[source=tailspike,quantile=0.100000]</text>
<path d="M2520,995.48L2520,1007.3L2540,1007.3L2540,995.48Z" style="fill:#F15A60" />
<text x="2336.8" y="-995.71" transform="scale(1, -1)"
	style="font-family:Times;font-weight:normal;font-style:normal;font-size:12px">[source=tailspike,quantile=0.500000]</text>
<path d="M2520,983.71L2520,995.48L2540,995.48L2540,983.71Z" style="fill:#7AC36A" />
<text x="2336.8" y="-983.93" transform="scale(1, -1)"
	style="font-family:Times;font-weight:normal;font-style:normal;font-size:12px">[source=tailspike,quantile=0.900000]</text>
<path d="M2520,971.93L2520,983.71L2540,983.71L2540,971.93Z" style="fill:#5A9BD4" />
<text x="2336.8" y="-972.15" transform="scale(1, -1)"
	style="font-family:Times;font-weight:normal;font-style:normal;font-size:12px">[source=tailspike,quantile=0.990000]</text>
<path d="M2520,960.15L2520,971.93L2540,971.93L2540,960.15Z" style="fill:#FAA75B" />
<text x="2336.8" y="-960.37" transform="scale(1, -1)"
	style="font-family:Times;font-weight:normal;font-style:normal;font-size:12px">[source=tailspike,quantile=0.999000]</text>
</g>
</svg>
