<?xml version="1.0"?>
<!-- Generated by SVGo and Plotinum VG -->
<svg width="440pt" height="220pt" viewBox="0 0 440 220"
	xmlns="http://www.w3.org/2000/svg"
	xmlns:xlink="http://www.w3.org/1999/xlink">
<g transform="scale(1, -1) translate(0, -220)">
<path d="M0,0L440,0L440,220L0,220Z" style="fill:#FFFFFF" />
<text x="35.896" y="-208.45" transform="scale(1, -1)"
	style="font-family:Times;font-weight:normal;font-style:normal;font-size:12px">BenchmarkCorrectness/size=1000000/source=exponential/digest=segmentio</text>
<text x="224.01" y="-3.8613" transform="scale(1, -1)"
	style="font-family:Times;font-weight:normal;font-style:normal;font-size:12px">quantile</text>
<text x="46.666" y="-15.602" transform="scale(1, -1)"
	style="font-family:Times;font-weight:normal;font-style:normal;font-size:10px">0.100000</text>
<text x="135.62" y="-15.602" transform="scale(1, -1)"
	style="font-family:Times;font-weight:normal;font-style:normal;font-size:10px">0.500000</text>
<text x="224.58" y="-15.602" transform="scale(1, -1)"
	style="font-family:Times;font-weight:normal;font-style:normal;font-size:10px">0.900000</text>
<text x="313.54" y="-15.602" transform="scale(1, -1)"
	style="font-family:Times;font-weight:normal;font-style:normal;font-size:10px">0.990000</text>
<text x="402.5" y="-15.602" transform="scale(1, -1)"
	style="font-family:Times;font-weight:normal;font-style:normal;font-size:10px">0.999000</text>
<g transform="rotate(90)">
<text x="88.204" y="11.555" transform="scale(1, -1)"
	style="font-family:Times;font-weight:normal;font-style:normal;font-size:12px">%difference</text>
</g>
<text x="15.416" y="-25.509" transform="scale(1, -1)"
	style="font-family:Times;font-weight:normal;font-style:normal;font-size:10px">0</text>
<text x="15.416" y="-103.69" transform="scale(1, -1)"
	style="font-family:Times;font-weight:normal;font-style:normal;font-size:10px">1</text>
<text x="15.416" y="-181.88" transform="scale(1, -1)"
	style="font-family:Times;font-weight:normal;font-style:normal;font-size:10px">2</text>
<path d="M22.916,30.23L30.916,30.23" style="fill:none;stroke:#000000;stroke-width:0.5" />
<path d="M22.916,108.42L30.916,108.42" style="fill:none;stroke:#000000;stroke-width:0.5" />
<path d="M22.916,186.6L30.916,186.6" style="fill:none;stroke:#000000;stroke-width:0.5" />
<path d="M26.916,45.868L30.916,45.868" style="fill:none;stroke:#000000;stroke-width:0.5" />
<path d="M26.916,61.505L30.916,61.505" style="fill:none;stroke:#000000;stroke-width:0.5" />
<path d="M26.916,77.142L30.916,77.142" style="fill:none;stroke:#000000;stroke-width:0.5" />
<path d="M26.916,92.779L30.916,92.779" style="fill:none;stroke:#000000;stroke-width:0.5" />
<path d="M26.916,124.05L30.916,124.05" style="fill:none;stroke:#000000;stroke-width:0.5" />
<path d="M26.916,139.69L30.916,139.69" style="fill:none;stroke:#000000;stroke-width:0.5" />
<path d="M26.916,155.33L30.916,155.33" style="fill:none;stroke:#000000;stroke-width:0.5" />
<path d="M26.916,170.96L30.916,170.96" style="fill:none;stroke:#000000;stroke-width:0.5" />
<path d="M26.916,202.24L30.916,202.24" style="fill:none;stroke:#000000;stroke-width:0.5" />
<path d="M30.916,30.23L30.916,204.58" style="fill:none;stroke:#000000;stroke-width:0.5" />
<path d="M50.416,30.23L50.416,117.02L80.416,117.02L80.416,30.23Z" style="fill:#F15A60" />
<path d="M139.37,30.23L139.37,39.535L169.37,39.535L169.37,30.23Z" style="fill:#F15A60" />
<path d="M228.33,30.23L228.33,204.58L258.33,204.58L258.33,30.23Z" style="fill:#F15A60" />
<path d="M317.29,30.23L317.29,87.697L347.29,87.697L347.29,30.23Z" style="fill:#F15A60" />
<path d="M406.25,30.23L406.25,107.79L436.25,107.79L436.25,30.23Z" style="fill:#F15A60" />
<path d="M420,204.58L420,204.58L440,204.58L440,204.58Z" style="fill:#F15A60" />
</g>
</svg>
