<?xml version="1.0"?>
<!-- Generated by SVGo and Plotinum VG -->
<svg width="740pt" height="370pt" viewBox="0 0 740 370"
	xmlns="http://www.w3.org/2000/svg"
	xmlns:xlink="http://www.w3.org/1999/xlink">
<g transform="scale(1, -1) translate(0, -370)">
<path d="M0,0L740,0L740,370L0,370Z" style="fill:#FFFFFF" />
<text x="229.94" y="-358.45" transform="scale(1, -1)"
	style="font-family:Times;font-weight:normal;font-style:normal;font-size:12px">BenchmarkCorrectness/size=1000000/source=exponential</text>
<text x="375.66" y="-3.8613" transform="scale(1, -1)"
	style="font-family:Times;font-weight:normal;font-style:normal;font-size:12px">digest</text>
<text x="106.67" y="-15.602" transform="scale(1, -1)"
	style="font-family:Times;font-weight:normal;font-style:normal;font-size:10px">caio</text>
<text x="369.45" y="-15.602" transform="scale(1, -1)"
	style="font-family:Times;font-weight:normal;font-style:normal;font-size:10px">segmentio</text>
<text x="644.73" y="-15.602" transform="scale(1, -1)"
	style="font-family:Times;font-weight:normal;font-style:normal;font-size:10px">influxdata</text>
<g transform="rotate(90)">
<text x="163.2" y="11.555" transform="scale(1, -1)"
	style="font-family:Times;font-weight:normal;font-style:normal;font-size:12px">%difference</text>
</g>
<text x="15.416" y="-25.509" transform="scale(1, -1)"
	style="font-family:Times;font-weight:normal;font-style:normal;font-size:10px">0</text>
<text x="15.416" y="-170.96" transform="scale(1, -1)"
	style="font-family:Times;font-weight:normal;font-style:normal;font-size:10px">1</text>
<text x="15.416" y="-316.41" transform="scale(1, -1)"
	style="font-family:Times;font-weight:normal;font-style:normal;font-size:10px">2</text>
<path d="M22.916,30.23L30.916,30.23" style="fill:none;stroke:#000000;stroke-width:0.5" />
<path d="M22.916,175.68L30.916,175.68" style="fill:none;stroke:#000000;stroke-width:0.5" />
<path d="M22.916,321.13L30.916,321.13" style="fill:none;stroke:#000000;stroke-width:0.5" />
<path d="M26.916,59.32L30.916,59.32" style="fill:none;stroke:#000000;stroke-width:0.5" />
<path d="M26.916,88.41L30.916,88.41" style="fill:none;stroke:#000000;stroke-width:0.5" />
<path d="M26.916,117.5L30.916,117.5" style="fill:none;stroke:#000000;stroke-width:0.5" />
<path d="M26.916,146.59L30.916,146.59" style="fill:none;stroke:#000000;stroke-width:0.5" />
<path d="M26.916,204.77L30.916,204.77" style="fill:none;stroke:#000000;stroke-width:0.5" />
<path d="M26.916,233.86L30.916,233.86" style="fill:none;stroke:#000000;stroke-width:0.5" />
<path d="M26.916,262.95L30.916,262.95" style="fill:none;stroke:#000000;stroke-width:0.5" />
<path d="M26.916,292.04L30.916,292.04" style="fill:none;stroke:#000000;stroke-width:0.5" />
<path d="M26.916,350.22L30.916,350.22" style="fill:none;stroke:#000000;stroke-width:0.5" />
<path d="M30.916,30.23L30.916,354.58" style="fill:none;stroke:#000000;stroke-width:0.5" />
<path d="M39.994,30.23L39.994,30.261L69.994,30.261L69.994,30.23Z" style="fill:#F15A60" />
<path d="M315,30.23L315,191.68L345,191.68L345,30.23Z" style="fill:#F15A60" />
<path d="M590,30.23L590,30.375L620,30.375L620,30.23Z" style="fill:#F15A60" />
<path d="M69.994,30.23L69.994,30.491L99.994,30.491L99.994,30.23Z" style="fill:#7AC36A" />
<path d="M345,30.23L345,47.539L375,47.539L375,30.23Z" style="fill:#7AC36A" />
<path d="M620,30.23L620,30.549L650,30.549L650,30.23Z" style="fill:#7AC36A" />
<path d="M99.994,30.23L99.994,30.346L129.99,30.346L129.99,30.23Z" style="fill:#5A9BD4" />
<path d="M375,30.23L375,354.58L405,354.58L405,30.23Z" style="fill:#5A9BD4" />
<path d="M650,30.23L650,31.622L680,31.622L680,30.23Z" style="fill:#5A9BD4" />
<path d="M129.99,30.23L129.99,30.696L159.99,30.696L159.99,30.23Z" style="fill:#FAA75B" />
<path d="M405,30.23L405,137.14L435,137.14L435,30.23Z" style="fill:#FAA75B" />
<path d="M680,30.23L680,34.318L710,34.318L710,30.23Z" style="fill:#FAA75B" />
<path d="M159.99,30.23L159.99,30.888L189.99,30.888L189.99,30.23Z" style="fill:#9E67AB" />
<path d="M435,30.23L435,174.52L465,174.52L465,30.23Z" style="fill:#9E67AB" />
<path d="M710,30.23L710,47.394L740,47.394L740,30.23Z" style="fill:#9E67AB" />
<path d="M720,342.81L720,354.58L740,354.58L740,342.81Z" style="fill:#F15A60" />
<text x="672" y="-343.03" transform="scale(1, -1)"
	style="font-family:Times;font-weight:normal;font-style:normal;font-size:12px">0.100000</text>
<path d="M720,331.03L720,342.81L740,342.81L740,331.03Z" style="fill:#7AC36A" />
<text x="672" y="-331.25" transform="scale(1, -1)"
	style="font-family:Times;font-weight:normal;font-style:normal;font-size:12px">0.500000</text>
<path d="M720,319.25L720,331.03L740,331.03L740,319.25Z" style="fill:#5A9BD4" />
<text x="672" y="-319.47" transform="scale(1, -1)"
	style="font-family:Times;font-weight:normal;font-style:normal;font-size:12px">0.900000</text>
<path d="M720,307.47L720,319.25L740,319.25L740,307.47Z" style="fill:#FAA75B" />
<text x="672" y="-307.7" transform="scale(1, -1)"
	style="font-family:Times;font-weight:normal;font-style:normal;font-size:12px">0.990000</text>
<path d="M720,295.7L720,307.47L740,307.47L740,295.7Z" style="fill:#9E67AB" />
<text x="672" y="-295.92" transform="scale(1, -1)"
	style="font-family:Times;font-weight:normal;font-style:normal;font-size:12px">0.999000</text>
</g>
</svg>
