<?xml version="1.0"?>
<!-- Generated by SVGo and Plotinum VG -->
<svg width="1190pt" height="595pt" viewBox="0 0 1190 595"
	xmlns="http://www.w3.org/2000/svg"
	xmlns:xlink="http://www.w3.org/1999/xlink">
<g transform="scale(1, -1) translate(0, -595)">
<path d="M0,0L1190,0L1190,595L0,595Z" style="fill:#FFFFFF" />
<text x="459.93" y="-583.45" transform="scale(1, -1)"
	style="font-family:Times;font-weight:normal;font-style:normal;font-size:12px">BenchmarkCorrectness/size=1000000/digest=influxdata</text>
<text x="624.61" y="-3.8613" transform="scale(1, -1)"
	style="font-family:Times;font-weight:normal;font-style:normal;font-size:12px">source</text>
<text x="154.17" y="-15.602" transform="scale(1, -1)"
	style="font-family:Times;font-weight:normal;font-style:normal;font-size:10px">linear</text>
<text x="394.03" y="-15.602" transform="scale(1, -1)"
	style="font-family:Times;font-weight:normal;font-style:normal;font-size:10px">rand</text>
<text x="618.89" y="-15.602" transform="scale(1, -1)"
	style="font-family:Times;font-weight:normal;font-style:normal;font-size:10px">alternating</text>
<text x="863.47" y="-15.602" transform="scale(1, -1)"
	style="font-family:Times;font-weight:normal;font-style:normal;font-size:10px">normal</text>
<text x="1098.1" y="-15.602" transform="scale(1, -1)"
	style="font-family:Times;font-weight:normal;font-style:normal;font-size:10px">tailspike</text>
<g transform="rotate(90)">
<text x="275.7" y="11.555" transform="scale(1, -1)"
	style="font-family:Times;font-weight:normal;font-style:normal;font-size:12px">%difference</text>
</g>
<text x="20.416" y="-25.509" transform="scale(1, -1)"
	style="font-family:Times;font-weight:normal;font-style:normal;font-size:10px">0.00</text>
<text x="15.416" y="-504.04" transform="scale(1, -1)"
	style="font-family:Times;font-weight:normal;font-style:normal;font-size:10px">25.00</text>
<path d="M40.416,30.23L48.416,30.23" style="fill:none;stroke:#000000;stroke-width:0.5" />
<path d="M40.416,508.76L48.416,508.76" style="fill:none;stroke:#000000;stroke-width:0.5" />
<path d="M44.416,125.94L48.416,125.94" style="fill:none;stroke:#000000;stroke-width:0.5" />
<path d="M44.416,221.64L48.416,221.64" style="fill:none;stroke:#000000;stroke-width:0.5" />
<path d="M44.416,317.35L48.416,317.35" style="fill:none;stroke:#000000;stroke-width:0.5" />
<path d="M44.416,413.06L48.416,413.06" style="fill:none;stroke:#000000;stroke-width:0.5" />
<path d="M48.416,30.23L48.416,579.58" style="fill:none;stroke:#000000;stroke-width:0.5" />
<path d="M60.548,30.23L60.548,30.23L90.548,30.23L90.548,30.23Z" style="fill:#F15A60" />
<path d="M297.91,30.23L297.91,30.23L327.91,30.23L327.91,30.23Z" style="fill:#F15A60" />
<path d="M535.27,30.23L535.27,30.23L565.27,30.23L565.27,30.23Z" style="fill:#F15A60" />
<path d="M772.64,30.23L772.64,30.23L802.64,30.23L802.64,30.23Z" style="fill:#F15A60" />
<path d="M1010,30.23L1010,30.23L1040,30.23L1040,30.23Z" style="fill:#F15A60" />
<path d="M90.548,30.23L90.548,30.24L120.55,30.24L120.55,30.23Z" style="fill:#7AC36A" />
<path d="M327.91,30.23L327.91,30.384L357.91,30.384L357.91,30.23Z" style="fill:#7AC36A" />
<path d="M565.27,30.23L565.27,30.23L595.27,30.23L595.27,30.23Z" style="fill:#7AC36A" />
<path d="M802.64,30.23L802.64,30.456L832.64,30.456L832.64,30.23Z" style="fill:#7AC36A" />
<path d="M1040,30.23L1040,30.372L1070,30.372L1070,30.23Z" style="fill:#7AC36A" />
<path d="M120.55,30.23L120.55,30.232L150.55,30.232L150.55,30.23Z" style="fill:#5A9BD4" />
<path d="M357.91,30.23L357.91,30.304L387.91,30.304L387.91,30.23Z" style="fill:#5A9BD4" />
<path d="M595.27,30.23L595.27,30.23L625.27,30.23L625.27,30.23Z" style="fill:#5A9BD4" />
<path d="M832.64,30.23L832.64,61.431L862.64,61.431L862.64,30.23Z" style="fill:#5A9BD4" />
<path d="M1070,30.23L1070,30.298L1100,30.298L1100,30.23Z" style="fill:#5A9BD4" />
<path d="M150.55,30.23L150.55,30.232L180.55,30.232L180.55,30.23Z" style="fill:#FAA75B" />
<path d="M387.91,30.23L387.91,30.232L417.91,30.232L417.91,30.23Z" style="fill:#FAA75B" />
<path d="M625.27,30.23L625.27,30.23L655.27,30.23L655.27,30.23Z" style="fill:#FAA75B" />
<path d="M862.64,30.23L862.64,30.252L892.64,30.252L892.64,30.23Z" style="fill:#FAA75B" />
<path d="M1100,30.23L1100,579.58L1130,579.58L1130,30.23Z" style="fill:#FAA75B" />
<path d="M180.55,30.23L180.55,30.231L210.55,30.231L210.55,30.23Z" style="fill:#9E67AB" />
<path d="M417.91,30.23L417.91,30.231L447.91,30.231L447.91,30.23Z" style="fill:#9E67AB" />
<path d="M655.27,30.23L655.27,30.23L685.27,30.23L685.27,30.23Z" style="fill:#9E67AB" />
<path d="M892.64,30.23L892.64,30.356L922.64,30.356L922.64,30.23Z" style="fill:#9E67AB" />
<path d="M1130,30.23L1130,30.348L1160,30.348L1160,30.23Z" style="fill:#9E67AB" />
<path d="M210.55,30.23L210.55,30.231L240.55,30.231L240.55,30.23Z" style="fill:#CE7058" />
<path d="M447.91,30.23L447.91,30.236L477.91,30.236L477.91,30.23Z" style="fill:#CE7058" />
<path d="M685.27,30.23L685.27,30.23L715.27,30.23L715.27,30.23Z" style="fill:#CE7058" />
<path d="M922.64,30.23L922.64,30.381L952.64,30.381L952.64,30.23Z" style="fill:#CE7058" />
<path d="M1160,30.23L1160,30.256L1190,30.256L1190,30.23Z" style="fill:#CE7058" />
<path d="M1170,567.81L1170,579.58L1190,579.58L1190,567.81Z" style="fill:#F15A60" />
<text x="1122" y="-568.03" transform="scale(1, -1)"
	style="font-family:Times;font-weight:normal;font-style:normal;font-size:12px">0.000000</text>
<path d="M1170,556.03L1170,567.81L1190,567.81L1190,556.03Z" style="fill:#7AC36A" />
<text x="1122" y="-556.25" transform="scale(1, -1)"
	style="font-family:Times;font-weight:normal;font-style:normal;font-size:12px">0.100000</text>
<path d="M1170,544.25L1170,556.03L1190,556.03L1190,544.25Z" style="fill:#5A9BD4" />
<text x="1122" y="-544.47" transform="scale(1, -1)"
	style="font-family:Times;font-weight:normal;font-style:normal;font-size:12px">0.500000</text>
<path d="M1170,532.47L1170,544.25L1190,544.25L1190,532.47Z" style="fill:#FAA75B" />
<text x="1122" y="-532.7" transform="scale(1, -1)"
	style="font-family:Times;font-weight:normal;font-style:normal;font-size:12px">0.900000</text>
<path d="M1170,520.7L1170,532.47L1190,532.47L1190,520.7Z" style="fill:#9E67AB" />
<text x="1122" y="-520.92" transform="scale(1, -1)"
	style="font-family:Times;font-weight:normal;font-style:normal;font-size:12px">0.990000</text>
<path d="M1170,508.92L1170,520.7L1190,520.7L1190,508.92Z" style="fill:#CE7058" />
<text x="1122" y="-509.14" transform="scale(1, -1)"
	style="font-family:Times;font-weight:normal;font-style:normal;font-size:12px">0.999000</text>
</g>
</svg>
