<?xml version="1.0"?>
<!-- Generated by SVGo and Plotinum VG -->
<svg width="470pt" height="235pt" viewBox="0 0 470 235"
	xmlns="http://www.w3.org/2000/svg"
	xmlns:xlink="http://www.w3.org/1999/xlink">
<g transform="scale(1, -1) translate(0, -235)">
<path d="M0,0L470,0L470,235L0,235Z" style="fill:#FFFFFF" />
<text x="51.232" y="-223.45" transform="scale(1, -1)"
	style="font-family:Times;font-weight:normal;font-style:normal;font-size:12px">BenchmarkCorrectness/size=1000000/source=exponential/digest=influxdata</text>
<text x="251.25" y="-3.8613" transform="scale(1, -1)"
	style="font-family:Times;font-weight:normal;font-style:normal;font-size:12px">quant</text>
<text x="59.166" y="-15.602" transform="scale(1, -1)"
	style="font-family:Times;font-weight:normal;font-style:normal;font-size:10px">0.000000</text>
<text x="133.83" y="-15.602" transform="scale(1, -1)"
	style="font-family:Times;font-weight:normal;font-style:normal;font-size:10px">0.100000</text>
<text x="208.5" y="-15.602" transform="scale(1, -1)"
	style="font-family:Times;font-weight:normal;font-style:normal;font-size:10px">0.500000</text>
<text x="283.17" y="-15.602" transform="scale(1, -1)"
	style="font-family:Times;font-weight:normal;font-style:normal;font-size:10px">0.900000</text>
<text x="357.83" y="-15.602" transform="scale(1, -1)"
	style="font-family:Times;font-weight:normal;font-style:normal;font-size:10px">0.990000</text>
<text x="432.5" y="-15.602" transform="scale(1, -1)"
	style="font-family:Times;font-weight:normal;font-style:normal;font-size:10px">0.999000</text>
<g transform="rotate(90)">
<text x="95.704" y="11.555" transform="scale(1, -1)"
	style="font-family:Times;font-weight:normal;font-style:normal;font-size:12px">%difference</text>
</g>
<text x="27.916" y="-25.509" transform="scale(1, -1)"
	style="font-family:Times;font-weight:normal;font-style:normal;font-size:10px">0</text>
<text x="15.416" y="-105.74" transform="scale(1, -1)"
	style="font-family:Times;font-weight:normal;font-style:normal;font-size:10px">0.05</text>
<text x="20.416" y="-185.98" transform="scale(1, -1)"
	style="font-family:Times;font-weight:normal;font-style:normal;font-size:10px">0.1</text>
<path d="M35.416,30.23L43.416,30.23" style="fill:none;stroke:#000000;stroke-width:0.5" />
<path d="M35.416,110.47L43.416,110.47" style="fill:none;stroke:#000000;stroke-width:0.5" />
<path d="M35.416,190.7L43.416,190.7" style="fill:none;stroke:#000000;stroke-width:0.5" />
<path d="M39.416,46.277L43.416,46.277" style="fill:none;stroke:#000000;stroke-width:0.5" />
<path d="M39.416,62.324L43.416,62.324" style="fill:none;stroke:#000000;stroke-width:0.5" />
<path d="M39.416,78.371L43.416,78.371" style="fill:none;stroke:#000000;stroke-width:0.5" />
<path d="M39.416,94.418L43.416,94.418" style="fill:none;stroke:#000000;stroke-width:0.5" />
<path d="M39.416,126.51L43.416,126.51" style="fill:none;stroke:#000000;stroke-width:0.5" />
<path d="M39.416,142.56L43.416,142.56" style="fill:none;stroke:#000000;stroke-width:0.5" />
<path d="M39.416,158.61L43.416,158.61" style="fill:none;stroke:#000000;stroke-width:0.5" />
<path d="M39.416,174.65L43.416,174.65" style="fill:none;stroke:#000000;stroke-width:0.5" />
<path d="M39.416,206.75L43.416,206.75" style="fill:none;stroke:#000000;stroke-width:0.5" />
<path d="M43.416,30.23L43.416,219.58" style="fill:none;stroke:#000000;stroke-width:0.5" />
<path d="M62.916,30.23L62.916,30.23L92.916,30.23L92.916,30.23Z" style="fill:#F15A60" />
<path d="M137.58,30.23L137.58,31.826L167.58,31.826L167.58,30.23Z" style="fill:#F15A60" />
<path d="M212.25,30.23L212.25,33.745L242.25,33.745L242.25,30.23Z" style="fill:#F15A60" />
<path d="M286.92,30.23L286.92,45.587L316.92,45.587L316.92,30.23Z" style="fill:#F15A60" />
<path d="M361.58,30.23L361.58,75.322L391.58,75.322L391.58,30.23Z" style="fill:#F15A60" />
<path d="M436.25,30.23L436.25,219.58L466.25,219.58L466.25,30.23Z" style="fill:#F15A60" />
<path d="M450,219.58L450,219.58L470,219.58L470,219.58Z" style="fill:#F15A60" />
</g>
</svg>
