<?xml version="1.0"?>
<!-- Generated by SVGo and Plotinum VG -->
<svg width="470pt" height="235pt" viewBox="0 0 470 235"
	xmlns="http://www.w3.org/2000/svg"
	xmlns:xlink="http://www.w3.org/1999/xlink">
<g transform="scale(1, -1) translate(0, -235)">
<path d="M0,0L470,0L470,235L0,235Z" style="fill:#FFFFFF" />
<text x="65.564" y="-223.45" transform="scale(1, -1)"
	style="font-family:Times;font-weight:normal;font-style:normal;font-size:12px">BenchmarkCorrectness/size=1000000/source=exponential/digest=caio</text>
<text x="253.75" y="-3.8613" transform="scale(1, -1)"
	style="font-family:Times;font-weight:normal;font-style:normal;font-size:12px">quant</text>
<text x="64.166" y="-15.602" transform="scale(1, -1)"
	style="font-family:Times;font-weight:normal;font-style:normal;font-size:10px">0.000000</text>
<text x="137.83" y="-15.602" transform="scale(1, -1)"
	style="font-family:Times;font-weight:normal;font-style:normal;font-size:10px">0.100000</text>
<text x="211.5" y="-15.602" transform="scale(1, -1)"
	style="font-family:Times;font-weight:normal;font-style:normal;font-size:10px">0.500000</text>
<text x="285.17" y="-15.602" transform="scale(1, -1)"
	style="font-family:Times;font-weight:normal;font-style:normal;font-size:10px">0.900000</text>
<text x="358.83" y="-15.602" transform="scale(1, -1)"
	style="font-family:Times;font-weight:normal;font-style:normal;font-size:10px">0.990000</text>
<text x="432.5" y="-15.602" transform="scale(1, -1)"
	style="font-family:Times;font-weight:normal;font-style:normal;font-size:10px">0.999000</text>
<g transform="rotate(90)">
<text x="95.704" y="11.555" transform="scale(1, -1)"
	style="font-family:Times;font-weight:normal;font-style:normal;font-size:12px">%difference</text>
</g>
<text x="32.916" y="-25.509" transform="scale(1, -1)"
	style="font-family:Times;font-weight:normal;font-style:normal;font-size:10px">0</text>
<text x="15.416" y="-109.29" transform="scale(1, -1)"
	style="font-family:Times;font-weight:normal;font-style:normal;font-size:10px">0.002</text>
<text x="15.416" y="-193.08" transform="scale(1, -1)"
	style="font-family:Times;font-weight:normal;font-style:normal;font-size:10px">0.004</text>
<path d="M40.416,30.23L48.416,30.23" style="fill:none;stroke:#000000;stroke-width:0.5" />
<path d="M40.416,114.02L48.416,114.02" style="fill:none;stroke:#000000;stroke-width:0.5" />
<path d="M40.416,197.8L48.416,197.8" style="fill:none;stroke:#000000;stroke-width:0.5" />
<path d="M44.416,72.123L48.416,72.123" style="fill:none;stroke:#000000;stroke-width:0.5" />
<path d="M44.416,155.91L48.416,155.91" style="fill:none;stroke:#000000;stroke-width:0.5" />
<path d="M48.416,30.23L48.416,219.58" style="fill:none;stroke:#000000;stroke-width:0.5" />
<path d="M67.916,30.23L67.916,30.23L97.916,30.23L97.916,30.23Z" style="fill:#F15A60" />
<path d="M141.58,30.23L141.58,39.112L171.58,39.112L171.58,30.23Z" style="fill:#F15A60" />
<path d="M215.25,30.23L215.25,105.22L245.25,105.22L245.25,30.23Z" style="fill:#F15A60" />
<path d="M288.92,30.23L288.92,63.577L318.92,63.577L318.92,30.23Z" style="fill:#F15A60" />
<path d="M362.58,30.23L362.58,164.29L392.58,164.29L392.58,30.23Z" style="fill:#F15A60" />
<path d="M436.25,30.23L436.25,219.58L466.25,219.58L466.25,30.23Z" style="fill:#F15A60" />
<path d="M450,219.58L450,219.58L470,219.58L470,219.58Z" style="fill:#F15A60" />
</g>
</svg>
