<?xml version="1.0"?>
<!-- Generated by SVGo and Plotinum VG -->
<svg width="830pt" height="415pt" viewBox="0 0 830 415"
	xmlns="http://www.w3.org/2000/svg"
	xmlns:xlink="http://www.w3.org/1999/xlink">
<g transform="scale(1, -1) translate(0, -415)">
<path d="M0,0L830,0L830,415L0,415Z" style="fill:#FFFFFF" />
<text x="274.94" y="-403.45" transform="scale(1, -1)"
	style="font-family:Times;font-weight:normal;font-style:normal;font-size:12px">BenchmarkCorrectness/size=1000000/source=exponential</text>
<text x="438.16" y="-3.8613" transform="scale(1, -1)"
	style="font-family:Times;font-weight:normal;font-style:normal;font-size:12px">digest</text>
<text x="141.67" y="-15.602" transform="scale(1, -1)"
	style="font-family:Times;font-weight:normal;font-style:normal;font-size:10px">caio</text>
<text x="431.95" y="-15.602" transform="scale(1, -1)"
	style="font-family:Times;font-weight:normal;font-style:normal;font-size:10px">segmentio</text>
<text x="734.73" y="-15.602" transform="scale(1, -1)"
	style="font-family:Times;font-weight:normal;font-style:normal;font-size:10px">influxdata</text>
<g transform="rotate(90)">
<text x="185.7" y="11.555" transform="scale(1, -1)"
	style="font-family:Times;font-weight:normal;font-style:normal;font-size:12px">%difference</text>
</g>
<text x="20.416" y="-25.509" transform="scale(1, -1)"
	style="font-family:Times;font-weight:normal;font-style:normal;font-size:10px">0</text>
<text x="20.416" y="-193.4" transform="scale(1, -1)"
	style="font-family:Times;font-weight:normal;font-style:normal;font-size:10px">8</text>
<text x="15.416" y="-361.28" transform="scale(1, -1)"
	style="font-family:Times;font-weight:normal;font-style:normal;font-size:10px">16</text>
<path d="M27.916,30.23L35.916,30.23" style="fill:none;stroke:#000000;stroke-width:0.5" />
<path d="M27.916,198.12L35.916,198.12" style="fill:none;stroke:#000000;stroke-width:0.5" />
<path d="M27.916,366.01L35.916,366.01" style="fill:none;stroke:#000000;stroke-width:0.5" />
<path d="M31.916,114.17L35.916,114.17" style="fill:none;stroke:#000000;stroke-width:0.5" />
<path d="M31.916,282.06L35.916,282.06" style="fill:none;stroke:#000000;stroke-width:0.5" />
<path d="M35.916,30.23L35.916,399.58" style="fill:none;stroke:#000000;stroke-width:0.5" />
<path d="M44.994,30.23L44.994,30.23L74.994,30.23L74.994,30.23Z" style="fill:#F15A60" />
<path d="M347.5,30.23L347.5,399.58L377.5,399.58L377.5,30.23Z" style="fill:#F15A60" />
<path d="M650,30.23L650,30.23L680,30.23L680,30.23Z" style="fill:#F15A60" />
<path d="M74.994,30.23L74.994,30.235L104.99,30.235L104.99,30.23Z" style="fill:#7AC36A" />
<path d="M377.5,30.23L377.5,53.525L407.5,53.525L407.5,30.23Z" style="fill:#7AC36A" />
<path d="M680,30.23L680,30.251L710,30.251L710,30.23Z" style="fill:#7AC36A" />
<path d="M104.99,30.23L104.99,30.268L134.99,30.268L134.99,30.23Z" style="fill:#5A9BD4" />
<path d="M407.5,30.23L407.5,32.728L437.5,32.728L437.5,30.23Z" style="fill:#5A9BD4" />
<path d="M710,30.23L710,30.276L740,30.276L740,30.23Z" style="fill:#5A9BD4" />
<path d="M134.99,30.23L134.99,30.247L164.99,30.247L164.99,30.23Z" style="fill:#FAA75B" />
<path d="M437.5,30.23L437.5,77.029L467.5,77.029L467.5,30.23Z" style="fill:#FAA75B" />
<path d="M740,30.23L740,30.431L770,30.431L770,30.23Z" style="fill:#FAA75B" />
<path d="M164.99,30.23L164.99,30.298L194.99,30.298L194.99,30.23Z" style="fill:#9E67AB" />
<path d="M467.5,30.23L467.5,45.655L497.5,45.655L497.5,30.23Z" style="fill:#9E67AB" />
<path d="M770,30.23L770,30.82L800,30.82L800,30.23Z" style="fill:#9E67AB" />
<path d="M194.99,30.23L194.99,30.325L224.99,30.325L224.99,30.23Z" style="fill:#CE7058" />
<path d="M497.5,30.23L497.5,51.049L527.5,51.049L527.5,30.23Z" style="fill:#CE7058" />
<path d="M800,30.23L800,32.707L830,32.707L830,30.23Z" style="fill:#CE7058" />
<path d="M810,387.81L810,399.58L830,399.58L830,387.81Z" style="fill:#F15A60" />
<text x="762" y="-388.03" transform="scale(1, -1)"
	style="font-family:Times;font-weight:normal;font-style:normal;font-size:12px">0.000000</text>
<path d="M810,376.03L810,387.81L830,387.81L830,376.03Z" style="fill:#7AC36A" />
<text x="762" y="-376.25" transform="scale(1, -1)"
	style="font-family:Times;font-weight:normal;font-style:normal;font-size:12px">0.100000</text>
<path d="M810,364.25L810,376.03L830,376.03L830,364.25Z" style="fill:#5A9BD4" />
<text x="762" y="-364.47" transform="scale(1, -1)"
	style="font-family:Times;font-weight:normal;font-style:normal;font-size:12px">0.500000</text>
<path d="M810,352.47L810,364.25L830,364.25L830,352.47Z" style="fill:#FAA75B" />
<text x="762" y="-352.7" transform="scale(1, -1)"
	style="font-family:Times;font-weight:normal;font-style:normal;font-size:12px">0.900000</text>
<path d="M810,340.7L810,352.47L830,352.47L830,340.7Z" style="fill:#9E67AB" />
<text x="762" y="-340.92" transform="scale(1, -1)"
	style="font-family:Times;font-weight:normal;font-style:normal;font-size:12px">0.990000</text>
<path d="M810,328.92L810,340.7L830,340.7L830,328.92Z" style="fill:#CE7058" />
<text x="762" y="-329.14" transform="scale(1, -1)"
	style="font-family:Times;font-weight:normal;font-style:normal;font-size:12px">0.999000</text>
</g>
</svg>
