<?xml version="1.0"?>
<!-- Generated by SVGo and Plotinum VG -->
<svg width="440pt" height="220pt" viewBox="0 0 440 220"
	xmlns="http://www.w3.org/2000/svg"
	xmlns:xlink="http://www.w3.org/1999/xlink">
<g transform="scale(1, -1) translate(0, -220)">
<path d="M0,0L440,0L440,220L0,220Z" style="fill:#FFFFFF" />
<text x="36.232" y="-208.45" transform="scale(1, -1)"
	style="font-family:Times;font-weight:normal;font-style:normal;font-size:12px">BenchmarkCorrectness/size=1000000/source=exponential/digest=influxdata</text>
<text x="230.26" y="-3.8613" transform="scale(1, -1)"
	style="font-family:Times;font-weight:normal;font-style:normal;font-size:12px">quantile</text>
<text x="59.166" y="-15.602" transform="scale(1, -1)"
	style="font-family:Times;font-weight:normal;font-style:normal;font-size:10px">0.100000</text>
<text x="145" y="-15.602" transform="scale(1, -1)"
	style="font-family:Times;font-weight:normal;font-style:normal;font-size:10px">0.500000</text>
<text x="230.83" y="-15.602" transform="scale(1, -1)"
	style="font-family:Times;font-weight:normal;font-style:normal;font-size:10px">0.900000</text>
<text x="316.67" y="-15.602" transform="scale(1, -1)"
	style="font-family:Times;font-weight:normal;font-style:normal;font-size:10px">0.990000</text>
<text x="402.5" y="-15.602" transform="scale(1, -1)"
	style="font-family:Times;font-weight:normal;font-style:normal;font-size:10px">0.999000</text>
<g transform="rotate(90)">
<text x="88.204" y="11.555" transform="scale(1, -1)"
	style="font-family:Times;font-weight:normal;font-style:normal;font-size:12px">%difference</text>
</g>
<text x="27.916" y="-25.509" transform="scale(1, -1)"
	style="font-family:Times;font-weight:normal;font-style:normal;font-size:10px">0</text>
<text x="15.416" y="-99.387" transform="scale(1, -1)"
	style="font-family:Times;font-weight:normal;font-style:normal;font-size:10px">0.05</text>
<text x="20.416" y="-173.27" transform="scale(1, -1)"
	style="font-family:Times;font-weight:normal;font-style:normal;font-size:10px">0.1</text>
<path d="M35.416,30.23L43.416,30.23" style="fill:none;stroke:#000000;stroke-width:0.5" />
<path d="M35.416,104.11L43.416,104.11" style="fill:none;stroke:#000000;stroke-width:0.5" />
<path d="M35.416,177.99L43.416,177.99" style="fill:none;stroke:#000000;stroke-width:0.5" />
<path d="M39.416,45.006L43.416,45.006" style="fill:none;stroke:#000000;stroke-width:0.5" />
<path d="M39.416,59.782L43.416,59.782" style="fill:none;stroke:#000000;stroke-width:0.5" />
<path d="M39.416,74.558L43.416,74.558" style="fill:none;stroke:#000000;stroke-width:0.5" />
<path d="M39.416,89.333L43.416,89.333" style="fill:none;stroke:#000000;stroke-width:0.5" />
<path d="M39.416,118.88L43.416,118.88" style="fill:none;stroke:#000000;stroke-width:0.5" />
<path d="M39.416,133.66L43.416,133.66" style="fill:none;stroke:#000000;stroke-width:0.5" />
<path d="M39.416,148.44L43.416,148.44" style="fill:none;stroke:#000000;stroke-width:0.5" />
<path d="M39.416,163.21L43.416,163.21" style="fill:none;stroke:#000000;stroke-width:0.5" />
<path d="M39.416,192.76L43.416,192.76" style="fill:none;stroke:#000000;stroke-width:0.5" />
<path d="M43.416,30.23L43.416,204.58" style="fill:none;stroke:#000000;stroke-width:0.5" />
<path d="M62.916,30.23L62.916,31.699L92.916,31.699L92.916,30.23Z" style="fill:#F15A60" />
<path d="M148.75,30.23L148.75,33.466L178.75,33.466L178.75,30.23Z" style="fill:#F15A60" />
<path d="M234.58,30.23L234.58,44.371L264.58,44.371L264.58,30.23Z" style="fill:#F15A60" />
<path d="M320.42,30.23L320.42,71.75L350.42,71.75L350.42,30.23Z" style="fill:#F15A60" />
<path d="M406.25,30.23L406.25,204.58L436.25,204.58L436.25,30.23Z" style="fill:#F15A60" />
<path d="M420,204.58L420,204.58L440,204.58L440,204.58Z" style="fill:#F15A60" />
</g>
</svg>
