<?xml version="1.0"?>
<!-- Generated by SVGo and Plotinum VG -->
<svg width="440pt" height="220pt" viewBox="0 0 440 220"
	xmlns="http://www.w3.org/2000/svg"
	xmlns:xlink="http://www.w3.org/1999/xlink">
<g transform="scale(1, -1) translate(0, -220)">
<path d="M0,0L440,0L440,220L0,220Z" style="fill:#FFFFFF" />
<text x="50.564" y="-208.45" transform="scale(1, -1)"
	style="font-family:Times;font-weight:normal;font-style:normal;font-size:12px">BenchmarkCorrectness/size=1000000/source=exponential/digest=caio</text>
<text x="232.76" y="-3.8613" transform="scale(1, -1)"
	style="font-family:Times;font-weight:normal;font-style:normal;font-size:12px">quantile</text>
<text x="64.166" y="-15.602" transform="scale(1, -1)"
	style="font-family:Times;font-weight:normal;font-style:normal;font-size:10px">0.100000</text>
<text x="148.75" y="-15.602" transform="scale(1, -1)"
	style="font-family:Times;font-weight:normal;font-style:normal;font-size:10px">0.500000</text>
<text x="233.33" y="-15.602" transform="scale(1, -1)"
	style="font-family:Times;font-weight:normal;font-style:normal;font-size:10px">0.900000</text>
<text x="317.92" y="-15.602" transform="scale(1, -1)"
	style="font-family:Times;font-weight:normal;font-style:normal;font-size:10px">0.990000</text>
<text x="402.5" y="-15.602" transform="scale(1, -1)"
	style="font-family:Times;font-weight:normal;font-style:normal;font-size:10px">0.999000</text>
<g transform="rotate(90)">
<text x="88.204" y="11.555" transform="scale(1, -1)"
	style="font-family:Times;font-weight:normal;font-style:normal;font-size:12px">%difference</text>
</g>
<text x="32.916" y="-25.509" transform="scale(1, -1)"
	style="font-family:Times;font-weight:normal;font-style:normal;font-size:10px">0</text>
<text x="15.416" y="-102.66" transform="scale(1, -1)"
	style="font-family:Times;font-weight:normal;font-style:normal;font-size:10px">0.002</text>
<text x="15.416" y="-179.8" transform="scale(1, -1)"
	style="font-family:Times;font-weight:normal;font-style:normal;font-size:10px">0.004</text>
<path d="M40.416,30.23L48.416,30.23" style="fill:none;stroke:#000000;stroke-width:0.5" />
<path d="M40.416,107.38L48.416,107.38" style="fill:none;stroke:#000000;stroke-width:0.5" />
<path d="M40.416,184.53L48.416,184.53" style="fill:none;stroke:#000000;stroke-width:0.5" />
<path d="M44.416,68.804L48.416,68.804" style="fill:none;stroke:#000000;stroke-width:0.5" />
<path d="M44.416,145.95L48.416,145.95" style="fill:none;stroke:#000000;stroke-width:0.5" />
<path d="M48.416,30.23L48.416,204.58" style="fill:none;stroke:#000000;stroke-width:0.5" />
<path d="M67.916,30.23L67.916,38.408L97.916,38.408L97.916,30.23Z" style="fill:#F15A60" />
<path d="M152.5,30.23L152.5,99.278L182.5,99.278L182.5,30.23Z" style="fill:#F15A60" />
<path d="M237.08,30.23L237.08,60.935L267.08,60.935L267.08,30.23Z" style="fill:#F15A60" />
<path d="M321.67,30.23L321.67,153.67L351.67,153.67L351.67,30.23Z" style="fill:#F15A60" />
<path d="M406.25,30.23L406.25,204.58L436.25,204.58L436.25,30.23Z" style="fill:#F15A60" />
<path d="M420,204.58L420,204.58L440,204.58L440,204.58Z" style="fill:#F15A60" />
</g>
</svg>
