<?xml version="1.0"?>
<!-- Generated by SVGo and Plotinum VG -->
<svg width="380pt" height="190pt" viewBox="0 0 380 190"
	xmlns="http://www.w3.org/2000/svg"
	xmlns:xlink="http://www.w3.org/1999/xlink">
<g transform="scale(1, -1) translate(0, -190)">
<path d="M0,0L380,0L380,190L0,190Z" style="fill:#FFFFFF" />
<text x="118.77" y="-178.45" transform="scale(1, -1)"
	style="font-family:Times;font-weight:normal;font-style:normal;font-size:12px">BenchmarkTdigest_TotalSize</text>
<text x="210.53" y="-3.8613" transform="scale(1, -1)"
	style="font-family:Times;font-weight:normal;font-style:normal;font-size:12px">digest</text>
<text x="81.666" y="-15.602" transform="scale(1, -1)"
	style="font-family:Times;font-weight:normal;font-style:normal;font-size:10px">caio</text>
<text x="204.31" y="-15.602" transform="scale(1, -1)"
	style="font-family:Times;font-weight:normal;font-style:normal;font-size:10px">segmentio</text>
<text x="339.46" y="-15.602" transform="scale(1, -1)"
	style="font-family:Times;font-weight:normal;font-style:normal;font-size:10px">influxdata</text>
<g transform="rotate(90)">
<text x="90.738" y="11.555" transform="scale(1, -1)"
	style="font-family:Times;font-weight:normal;font-style:normal;font-size:12px">B/op</text>
</g>
<text x="50.416" y="-25.509" transform="scale(1, -1)"
	style="font-family:Times;font-weight:normal;font-style:normal;font-size:10px">0</text>
<text x="20.416" y="-65.625" transform="scale(1, -1)"
	style="font-family:Times;font-weight:normal;font-style:normal;font-size:10px">4000000</text>
<text x="20.416" y="-105.74" transform="scale(1, -1)"
	style="font-family:Times;font-weight:normal;font-style:normal;font-size:10px">8000000</text>
<text x="15.416" y="-145.86" transform="scale(1, -1)"
	style="font-family:Times;font-weight:normal;font-style:normal;font-size:10px">12000000</text>
<path d="M57.916,30.23L65.916,30.23" style="fill:none;stroke:#000000;stroke-width:0.5" />
<path d="M57.916,70.347L65.916,70.347" style="fill:none;stroke:#000000;stroke-width:0.5" />
<path d="M57.916,110.46L65.916,110.46" style="fill:none;stroke:#000000;stroke-width:0.5" />
<path d="M57.916,150.58L65.916,150.58" style="fill:none;stroke:#000000;stroke-width:0.5" />
<path d="M61.916,40.26L65.916,40.26" style="fill:none;stroke:#000000;stroke-width:0.5" />
<path d="M61.916,50.289L65.916,50.289" style="fill:none;stroke:#000000;stroke-width:0.5" />
<path d="M61.916,60.318L65.916,60.318" style="fill:none;stroke:#000000;stroke-width:0.5" />
<path d="M61.916,80.376L65.916,80.376" style="fill:none;stroke:#000000;stroke-width:0.5" />
<path d="M61.916,90.405L65.916,90.405" style="fill:none;stroke:#000000;stroke-width:0.5" />
<path d="M61.916,100.43L65.916,100.43" style="fill:none;stroke:#000000;stroke-width:0.5" />
<path d="M61.916,120.49L65.916,120.49" style="fill:none;stroke:#000000;stroke-width:0.5" />
<path d="M61.916,130.52L65.916,130.52" style="fill:none;stroke:#000000;stroke-width:0.5" />
<path d="M61.916,140.55L65.916,140.55" style="fill:none;stroke:#000000;stroke-width:0.5" />
<path d="M61.916,160.61L65.916,160.61" style="fill:none;stroke:#000000;stroke-width:0.5" />
<path d="M61.916,170.64L65.916,170.64" style="fill:none;stroke:#000000;stroke-width:0.5" />
<path d="M65.916,30.23L65.916,174.58" style="fill:none;stroke:#000000;stroke-width:0.5" />
<path d="M74.994,30.23L74.994,31.519L104.99,31.519L104.99,30.23Z" style="fill:#F15A60" />
<path d="M209.86,30.23L209.86,174.58L239.86,174.58L239.86,30.23Z" style="fill:#F15A60" />
<path d="M344.73,30.23L344.73,34.728L374.73,34.728L374.73,30.23Z" style="fill:#F15A60" />
<path d="M360,174.58L360,174.58L380,174.58L380,174.58Z" style="fill:#F15A60" />
</g>
</svg>
